<?xml version="1.0" encoding="UTF-8"?>
<svg width="30px" height="48px" viewBox="0 0 30 48" version="1.1" xmlns="http://www.w3.org/2000/svg" xmlns:xlink="http://www.w3.org/1999/xlink">
    <!-- Generator: Sketch 43.2 (39069) - http://www.bohemiancoding.com/sketch -->
    <title>apps</title>
    <desc>Created with Sketch.</desc>
    <defs></defs>
    <g id="Pages" stroke="none" stroke-width="1" fill="none" fill-rule="evenodd" opacity="0.3">
        <g id="landing-3" transform="translate(-579.000000, -1141.000000)" fill="#23231E">
            <g id="design_development" transform="translate(180.000000, 940.000000)">
                <g id="app" transform="translate(399.000000, 201.000000)">
                    <path d="M11.997,27 L11.997,26 C11.997,26 11.583,26 11,25.999 C9.543,25.998 7,25.995 7,25.997 L7,27 L7,32.003 C7,31.997 7.004,31 7.003,31 C7.003,31 12,31.006 12,31.003 C12,31.003 11.998,28.459 11.997,27 L11.997,27 Z M14,25.997 L14,27 L14,31.003 C14,32.109 13.111,33 11.997,33 L7.003,33 C5.898,33 5,32.102 5,31.003 L5,27 L5,25.997 C5,24.891 5.889,24 7.003,24 L11,24 L11.997,24 C13.101,24 14,24.898 14,25.997 L14,25.997 Z M11.999,19 C11.998,17.541 11.996,15 11.997,15 C11.997,15 11.583,15 11,14.999 C9.543,14.998 7,14.995 7,14.997 L7,19 L7,21.003 C7,20.997 7.004,20 7.003,20 C7.003,20 9.543,20.003 11,20.004 C11.584,20.004 12,20.004 12,20.003 C12,20.003 12,19.586 11.999,19 L11.999,19 Z M14,14.997 L14,19 L14,20.003 C14,21.109 13.111,22 11.997,22 L11,22 L7.003,22 C5.898,22 5,21.102 5,20.003 L5,19 L5,14.997 C5,13.891 5.889,13 7.003,13 L11,13 L11.997,13 C13.101,13 14,13.898 14,14.997 L14,14.997 Z M23,20.003 C23,20.003 22.996,15 22.997,15 C22.997,15 20.457,14.997 19,14.996 C18.416,14.996 18,14.996 18,14.997 L18,19 L18,21.003 C18,20.997 18.004,20 18.003,20 C18.003,20 18.417,20 19,20.001 C20.457,20.002 23,20.005 23,20.003 L23,20.003 Z M25,14.997 L25,20.003 C25,21.109 24.111,22 22.997,22 L19,22 L18.003,22 C16.898,22 16,21.102 16,20.003 L16,19 L16,14.997 C16,13.891 16.889,13 18.003,13 L19,13 L22.997,13 C24.101,13 25,13.898 25,14.997 L25,14.997 Z M28,8 L28,4 C28,2.9 27.103,2 26.004,2 L24,2 L6,2 L3.997,2 C2.898,2 2,2.899 2,4 L2,8 L3,8 L6,8 L11,8 L19,8 L24,8 L28,8 Z M28,27 L28,10 L24,10 L19,10 L11,10 L6,10 L3,10 L2,10 L2,19 L2,27 L2,38 L3,38 L9,38 L19,38 L21,38 L28,38 L28,27 Z M28,40 L21,40 L9,40 L3,40 L2,40 L2,44 C2,45.1 2.896,46 3.997,46 L9,46 L21,46 L26.004,46 C27.101,46 28,45.102 28,44 L28,40 Z M30,4 L30,8 L30,27 L30,44 C30,46.206 28.205,48 26.004,48 L21,48 L9,48 L3.997,48 C1.792,48 0,46.203 0,44 L0,38 L0,27 L0,19 L0,8 L0,4 C0,1.794 1.795,0 3.997,0 L6,0 L24,0 L26.004,0 C28.209,0 30,1.797 30,4 L30,4 Z M15,42 C14.448,42 14,42.447 14,43 C14,43.553 14.448,44 15,44 C15.553,44 16,43.553 16,43 C16,42.447 15.553,42 15,42 L15,42 Z M19,5 C19,5.552 18.553,6 18,6 L12,6 C11.448,6 11,5.552 11,5 C11,4.448 11.448,4 12,4 L18,4 C18.553,4 19,4.448 19,5 L19,5 Z" id="apps"></path>
                </g>
            </g>
        </g>
    </g>
</svg>