<?xml version="1.0" encoding="UTF-8"?>
<svg width="180px" height="30px" viewBox="0 0 180 30" version="1.1" xmlns="http://www.w3.org/2000/svg" xmlns:xlink="http://www.w3.org/1999/xlink">
    <!-- Generator: Sketch 43.2 (39069) - http://www.bohemiancoding.com/sketch -->
    <title>barclays_logo@3x</title>
    <desc>Created with Sketch.</desc>
    <defs></defs>
    <g id="Pages" stroke="none" stroke-width="1" fill="none" fill-rule="evenodd" opacity="0.2">
        <g id="landing" transform="translate(-198.000000, -6243.000000)" fill="#000000">
            <g id="lithuania" transform="translate(198.000000, 5142.000000)">
                <g id="other_offices" transform="translate(0.000000, 775.000000)">
                    <g id="barclays_logo" transform="translate(0.000000, 326.000000)">
                        <path d="M41.4378916,25.6049597 L33.4285714,25.6049597 C34.4373457,24.7255717 34.7047579,21.302393 35.1491404,15.2727941 L35.2378429,13.8687761 C35.4761224,10.4443105 35.6539623,7.81043622 35.62396,5.96801111 C35.5943925,4.38682859 35.4165525,3.36159086 34.9708656,3.0106936 L43.9293902,3.0106936 C46.0652089,3.0106936 50.337716,3.12866029 50.337716,7.51744988 C50.337716,10.4443105 47.5783704,12.2588526 45.0568694,12.9044521 C48.617147,13.2553494 51.2869204,14.9519247 51.2869204,18.5810089 C51.2860508,22.5022215 47.5488029,25.6049597 41.4378916,25.6049597 M41.0822117,14.6885373 L39.4512149,14.6885373 L39.2133703,18.0246351 C39.095535,19.4887089 39.0350955,20.7168493 39.0059628,22.1800652 C39.0059628,22.3859706 39.6577528,22.8252357 41.1996121,22.8252357 C44.403775,22.8252357 46.5108958,21.2449111 46.5108958,18.6389198 C46.5108958,15.7416581 44.1067953,14.6885373 41.0822117,14.6885373 M41.8227042,5.73336465 C41.3770173,5.73336465 40.7847972,5.73336465 40.2208402,5.79256248 C39.9834304,7.37288707 39.8347231,8.89401383 39.7173226,10.5622772 C39.7173226,10.5622772 39.6277504,11.9954652 39.6277504,11.9366963 L40.2208402,11.9366963 C43.1284582,11.9366963 45.799536,10.9423444 45.799536,8.31018599 C45.799536,6.78605644 44.5229147,5.73336465 41.8227042,5.73336465 M70.0636019,25.8091493 C68.1073624,25.8091493 67.95909,25.7516674 66.3867934,20.4251499 L65.8232712,18.4643291 C64.8723275,18.9027362 63.1817609,19.1077838 60.48242,19.1077838 L57.7530768,19.1077838 L57.2791268,20.1025646 C56.8038723,21.1578302 55.6472604,23.3236985 55.6768279,24.5818668 C55.6768279,24.8739952 55.7063954,25.1669816 55.8255352,25.6058176 L50.337716,25.6058176 C51.9095777,24.054663 53.8979936,20.4556067 56.6564695,14.6310554 L58.2587684,11.2657876 C59.7114903,8.22267616 61.255089,4.76861167 61.255089,4.27100675 C61.255089,3.83045481 61.1381233,3.4220756 60.9581093,3.01155154 L65.9432806,3.01155154 C65.9432806,3.01155154 67.2464257,7.9000909 68.4043421,11.9671532 L69.383114,15.5383264 C71.0741154,21.5387554 72.14159,24.4643291 73.5660489,25.6058176 C72.2902972,25.7516674 70.6884332,25.8091493 70.0636019,25.8091493 M62.8573878,8.31018599 L59.1470985,16.1804941 L65.1684376,16.1804941 L62.8573878,8.31018599 M91.7483362,26.5714286 C90.0577696,26.5714286 89.6425198,26.3063253 89.0794324,25.5453329 L82.6711067,16.7656089 C82.1667195,16.0925553 81.7814721,15.5366105 80.9809749,15.5366105 L80.8327024,15.5366105 L80.7148672,17.2336149 C80.5652903,19.5461909 80.4765877,21.3920477 80.4765877,22.7664668 C80.5061552,24.2880226 80.6848648,25.2231766 81.1001146,25.6049597 L74.9000659,25.6049597 C75.7888309,24.8143684 76.1145085,22.1800652 76.6197652,15.2727941 L76.7093375,13.8391772 C76.9467473,10.4451685 77.1254569,7.81043622 77.0945849,5.96801111 C77.0645825,4.35808761 76.888047,3.36159086 76.4419253,3.0106936 L84.8956279,3.0106936 C87.6545387,3.0106936 91.4517913,3.48041549 91.4517913,7.89923296 C91.4517913,11.5270302 88.9885558,13.5178788 85.9348394,14.4530329 C86.2313843,14.7177073 86.7640345,15.3903318 87.0914513,15.8008559 L91.7483362,21.8887947 C94.656389,25.6641575 94.8929292,25.8391772 95.9317058,26.3659521 C94.6259518,26.5118018 92.8771198,26.5714286 91.7483362,26.5714286 M83.4737779,5.76296357 C82.9093861,5.76296357 82.2254197,5.76296357 81.6936391,5.82087449 C81.5157992,6.78605644 81.3662223,8.45517777 81.1592496,11.146534 L81.0388055,12.7281455 C81.3379592,12.7873433 81.7219022,12.8178002 82.0788866,12.8178002 C84.9256303,12.8178002 86.8853483,11.118222 86.8853483,8.54440348 C86.8853483,6.78605644 85.6387294,5.76296357 83.4737779,5.76296357 M103.94233,26.0437958 C98.0383918,26.0437958 94.6259518,21.2449111 94.6259518,15.8600537 C94.6259518,8.36809691 98.748882,2.57142857 106.610799,2.57142857 C109.073165,2.57142857 110.230647,3.0106936 112.216889,3.0106936 L111.624234,8.77690509 C110.497189,6.7568865 108.657046,5.38118048 106.196419,5.38118048 C101.302125,5.38118048 99.3137087,10.5923051 99.3137087,15.0694625 C99.3137087,19.927545 102.073054,22.5897313 105.750732,22.5897313 C107.738713,22.5897313 109.487545,22.0620985 112.426035,20.0437958 C111.238986,23.7908466 108.480076,26.0437958 103.94233,26.0437958 M144.314609,25.8091493 C142.35576,25.8091493 142.209227,25.7516674 140.635626,20.4251499 L140.073409,18.4643291 C139.125074,18.9027362 137.432333,19.1077838 134.732992,19.1077838 L132.004084,19.1077838 L131.528829,20.1025646 C130.846602,21.5966663 129.927835,23.3498657 129.927835,24.5818668 C129.927835,24.8739952 129.956968,25.1952936 130.076542,25.6058176 L113.878757,25.6058176 C114.799264,24.5818668 115.095374,21.274939 115.540191,15.2736521 L115.629329,13.8404641 C115.866738,10.4159985 116.046318,7.78212422 116.015446,5.93927014 C115.985878,4.41728544 115.836736,3.45124554 115.421921,3.01283845 L121.682844,3.01283845 C120.791035,3.68632097 120.463619,7.31411821 120.050108,13.3154051 L119.930968,14.7481641 C119.781826,16.9732302 119.486151,19.2553494 119.486151,21.4799865 C119.486151,22.5030794 119.901401,22.7368679 120.97105,22.7368679 C124.765693,22.7368679 125.716637,22.6493581 127.435901,21.5082985 C128.503376,19.5762187 129.721297,17.146534 130.906607,14.6301974 L132.51021,11.2649297 C134.022502,8.10428051 135.504357,4.8831466 135.504357,4.27014881 C135.504357,3.8291679 135.386087,3.42121766 135.209986,3.0106936 L140.193418,3.0106936 C140.193418,3.0106936 142.210097,10.3868286 142.654479,11.9654373 L143.632382,15.5374685 C145.323383,21.5378974 146.392597,24.4634712 147.816621,25.6049597 C146.628267,25.7516674 144.937266,25.8091493 144.314609,25.8091493 M137.105786,8.31018599 L133.428543,16.1804941 L139.419445,16.1804941 L137.105786,8.31018599 M158.672685,13.4295111 C158.136556,14.3080411 157.456938,15.5061537 157.039514,16.3859706 C156.684704,18.0533761 156.505994,20.2793002 156.505994,22.7364389 C156.505994,23.7612477 156.684704,25.1360958 157.159089,25.6049597 L150.959475,25.6049597 C152.055212,24.5810089 152.502204,18.2893095 152.443504,16.2984608 C151.612569,13.4599679 150.483785,10.7381548 148.763217,7.43036902 C147.668349,5.35286848 146.391727,3.39033184 145.589926,3.0106936 C146.983078,2.89487177 148.763217,2.80693297 149.625458,2.80693297 C151.166447,2.80693297 151.583002,3.0106936 152.533076,5.06074007 C154.013191,8.36809691 155.111972,10.8535477 155.765067,12.6994045 C157.337798,10.2692909 158.435275,8.60188542 159.859734,6.31890837 C160.215414,5.76296357 160.511959,5.06074007 160.511959,4.38682859 C160.511959,3.85919578 160.421952,3.27408103 160.185412,3.0106936 L166.32676,3.0106936 C165.139711,3.27408103 159.799294,11.5574871 158.672685,13.4295111 M179.40865,8.36723897 C178.457271,6.66851873 176.40972,5.38032254 174.186068,5.38032254 C172.228959,5.38032254 170.50839,6.17091381 170.50839,8.22053131 C170.50839,9.94627664 172.674211,11.1173641 174.929605,12.5522679 C177.391101,14.0733947 179.943039,15.9454187 179.943039,19.1961515 C179.943039,23.4399493 175.760539,26.0437958 170.924075,26.0437958 C168.936963,26.0437958 166.86028,25.6641575 164.517488,24.7860564 L164.901431,19.1369537 C166.029345,21.3920477 168.136901,23.1761329 171.249318,23.1761329 C173.652983,23.1761329 175.432253,22.0355024 175.432253,20.0437958 C175.432253,18.3467914 173.977356,17.2936707 172.199827,16.2405499 C168.460839,14.0163417 166.08935,12.2296827 166.08935,9.0106936 C166.08935,4.18049413 170.181843,2.57142857 174.424348,2.57142857 C176.884975,2.57142857 178.429008,3.0106936 180,3.0106936 L179.40865,8.36723897" id="Fill-1"></path>
                        <path d="M13.1043822,0.00174286876 C12.3010612,0.00174286876 12.1351149,0.139865218 11.8745308,0.427874281 C11.7719698,0.42177424 11.6645669,0.419159937 11.5527622,0.419159937 C10.9347553,0.419159937 10.1411182,0.508917678 9.46412767,0.957270668 C8.81046649,1.38470923 8.49970232,2.14111427 8.84788144,2.69447511 C8.84788144,2.69447511 9.08161483,2.3546157 9.85016192,2.3546157 C9.95844519,2.3546157 10.078173,2.36681578 10.205824,2.37683727 C11.2679684,2.50101667 12.0536824,3.05481322 11.9581642,4.51620868 C11.8732103,5.9767327 11.3199092,7.60500784 9.05652481,7.6241794 C9.05652481,7.6241794 8.76512837,7.6241794 8.45392403,7.59585778 C7.40058314,7.4821356 7.0691307,6.82725266 7.0691307,6.82725266 C7.0691307,6.82725266 7.9798546,6.58281531 7.98733759,5.43862197 C7.9798546,4.65999535 7.29538111,3.94846918 6.30762643,3.66046012 C5.98365698,3.56721664 5.62843504,3.52103062 5.2586873,3.52103062 C4.09398192,3.52103062 2.78665955,4.00424098 1.90498726,5.14320572 C-0.0938514207,7.75533027 -0.256276321,11.5634985 0.231438556,15.1050078 C0.722234664,18.6543601 2.99618327,21.9418463 3.06309,22.0311683 C3.11106917,22.0939116 3.15464659,22.128769 3.20350611,22.128769 C3.22903631,22.128769 3.25500669,22.1174403 3.28229759,22.094783 C4.26432998,21.151891 5.20058408,19.8621681 5.60158431,19.0003195 C6.03031562,19.3388718 5.8062661,20.0578051 5.57033182,20.8264103 C5.3462823,21.6128798 4.80178474,22.655551 4.60502612,22.9919247 C4.41487014,23.3208912 4.1600083,23.7030152 4.50246514,23.9025736 C4.53723903,23.9239238 4.58169679,23.9352524 4.63495808,23.9352524 C5.07513396,23.9352524 6.11130798,23.1753616 7.26720985,21.6503515 C8.56132694,19.93319 9.21762918,18.409487 9.21762918,18.409487 C9.312267,18.4304014 9.47073031,18.5890025 9.44475994,19.021234 C9.4271529,19.4600012 8.97157086,21.0926335 8.08417629,22.612415 C7.18709784,24.1308894 6.35824665,25.0811886 6.19141999,25.2973044 C6.08797866,25.4227909 6.17601384,25.5007843 6.24292057,25.5517632 C6.30850678,25.5953349 7.89490066,27.0615233 10.1996616,28.300703 C12.9305127,29.741184 14.1414366,30 14.1414366,30 C14.1414366,30 15.3497194,29.7477197 18.0805706,28.3081101 C20.3844511,27.0676233 21.9778878,25.5944635 22.0364312,25.5447917 C22.1033379,25.5003486 22.1882919,25.428891 22.0879318,25.29164 C21.9303488,25.0851101 21.0992968,24.130018 20.203979,22.6111079 C19.3196657,21.1022193 18.8460364,19.4591297 18.8394338,19.0260268 C18.8209464,18.5890025 18.9697258,18.4447801 19.0604021,18.4086156 C19.0604021,18.4086156 19.7241873,19.9414687 21.0183044,21.6490443 C22.1794884,23.1762331 23.2059785,23.934381 23.6483553,23.934381 C23.7042576,23.934381 23.7487154,23.9226166 23.7856902,23.9021379 C24.1175828,23.7021437 23.8702039,23.3139197 23.6756462,22.9893104 C23.4938536,22.6546796 22.9414328,21.6181084 22.7068191,20.8255388 C22.4818892,20.0486551 22.2481558,19.3297217 22.6848103,18.9994481 C23.0862507,19.860861 24.0163423,21.1571196 25.0010158,22.0878115 C25.0274263,22.1143903 25.0569181,22.1278975 25.0859697,22.1278975 C25.1295471,22.1278975 25.1757656,22.0939116 25.216702,22.0359612 C25.2888908,21.9405391 27.566801,18.6582815 28.0531953,15.1041364 C28.5422307,11.5552199 28.3811264,7.75533027 26.3800868,5.14233428 C25.5041368,3.99988381 24.1871306,3.51493058 23.0149422,3.51493058 C22.6487159,3.51493058 22.2992162,3.5611166 21.9796485,3.65174577 C20.9839707,3.94846918 20.3025784,4.66740254 20.3083007,5.43775054 C20.3083007,6.58194388 21.2234264,6.82594551 21.2234264,6.82594551 C21.2234264,6.82594551 20.9175041,7.46514262 19.8263081,7.59455063 C19.6225067,7.61938651 19.4244275,7.63115087 19.2355921,7.63115087 C18.4146641,7.63115087 17.7231477,7.3732063 17.0857731,6.48216464 C16.4677661,5.62467321 16.4880142,3.85958287 16.45236,3.27049323 C16.4241887,2.67312496 16.2952172,1.33373032 15.6604836,0.786033812 C15.0279508,0.225701505 14.257643,0.0370359612 13.2967391,0 C13.2263109,0.00174286876 13.1633658,0.00174286876 13.1043822,0.00174286876" id="Fill-4"></path>
                    </g>
                </g>
            </g>
        </g>
    </g>
</svg>