<?xml version="1.0" encoding="UTF-8"?>
<svg width="114px" height="19px" viewBox="0 0 114 19" version="1.1" xmlns="http://www.w3.org/2000/svg" xmlns:xlink="http://www.w3.org/1999/xlink">
    <!-- Generator: Sketch 43.2 (39069) - http://www.bohemiancoding.com/sketch -->
    <title>barclays_logo_m</title>
    <desc>Created with Sketch.</desc>
    <defs></defs>
    <g id="Pages" stroke="none" stroke-width="1" fill="none" fill-rule="evenodd" opacity="0.2">
        <g id="landing-mobile" transform="translate(-30.000000, -6323.000000)" fill="#000000">
            <g id="lithuania" transform="translate(-37.000000, 4496.000000)">
                <g id="other_offices" transform="translate(67.000000, 1718.000000)">
                    <g id="barclays_logo_m" transform="translate(0.000000, 109.000000)">
                        <path d="M26.243998,16.2164745 L21.1714286,16.2164745 C21.810319,15.6595287 21.97968,13.4915156 22.2611222,9.67276961 L22.3173005,8.7835582 C22.4682108,6.61473 22.5808428,4.94660961 22.5618413,3.77974037 C22.5431152,2.77832477 22.4304833,2.12900755 22.1482149,1.90677262 L27.8219471,1.90677262 C29.1746323,1.90677262 31.8805534,1.98148485 31.8805534,4.76105159 C31.8805534,6.61473 30.1329679,7.76393999 28.5360173,8.17281966 C30.7908598,8.39505459 32.4817163,9.46955234 32.4817163,11.7679723 C32.4811655,14.2514069 30.1142418,16.2164745 26.243998,16.2164745 M26.0187341,9.3027403 L24.9857695,9.3027403 L24.8351345,11.4156022 C24.7605055,12.342849 24.7222272,13.1206712 24.7037765,14.0473746 C24.7037765,14.1777814 25.1165768,14.4559826 26.0930877,14.4559826 C28.1223908,14.4559826 29.4569007,13.4551104 29.4569007,11.8046492 C29.4569007,9.96971678 27.9343037,9.3027403 26.0187341,9.3027403 M26.4877127,3.63113095 C26.2054443,3.63113095 25.8303716,3.63113095 25.4731988,3.6686229 C25.3228392,4.66949514 25.228658,5.63287543 25.1543043,6.68944224 C25.1543043,6.68944224 25.0975753,7.59712795 25.0975753,7.55990767 L25.4731988,7.55990767 C27.3146902,7.55990767 29.0063728,6.93015147 29.0063728,5.26311779 C29.0063728,4.29783575 28.197846,3.63113095 26.4877127,3.63113095 M44.3736145,16.3457946 C43.1346628,16.3457946 43.040757,16.3093893 42.0449692,12.9359283 L41.6880718,11.6940751 C41.0858074,11.9717329 40.0151153,12.1015964 38.3055327,12.1015964 L36.5769486,12.1015964 L36.2767803,12.7316243 C35.9757858,13.3999591 35.2432649,14.7716757 35.261991,15.5685157 C35.261991,15.7535303 35.2807171,15.9390883 35.3561723,16.2170178 L31.8805534,16.2170178 C32.8760659,15.2346199 34.1353959,12.9552176 35.8824307,9.26633507 L36.89722,7.13499883 C37.8172772,5.2076949 38.7948897,3.02012072 38.7948897,2.70497094 C38.7948897,2.42595471 38.7208114,2.16731455 38.6068025,1.90731598 L41.7640777,1.90731598 C41.7640777,1.90731598 42.5894029,5.0033909 43.32275,7.57919701 L43.9426389,9.84094006 C45.0136065,13.6412117 45.6896737,15.4940751 46.591831,16.2170178 C45.7838549,16.3093893 44.769341,16.3457946 44.3736145,16.3457946 M39.8096789,5.26311779 L37.4598291,10.2476463 L41.2733438,10.2476463 L39.8096789,5.26311779 M58.1072796,16.8285714 C57.0365874,16.8285714 56.7735959,16.6606727 56.4169739,16.1787108 L52.3583675,10.618219 C52.0389224,10.1919517 51.7949323,9.83985333 51.2879508,9.83985333 L51.1940449,9.83985333 L51.1194159,10.9146228 C51.0246838,12.3792542 50.9685056,13.5482969 50.9685056,14.4187623 C50.9872317,15.3824143 51.1004144,15.9746785 51.3634059,16.2164745 L47.4367084,16.2164745 C47.9995929,15.7157667 48.2058554,14.0473746 48.5258513,9.67276961 L48.5825804,8.76481222 C48.7329399,6.61527337 48.8461227,4.94660961 48.8265704,3.77974037 C48.8075689,2.76012215 48.6957631,2.12900755 48.4132194,1.90677262 L53.767231,1.90677262 C55.5145412,1.90677262 57.9194678,2.20426314 57.9194678,5.00284754 C57.9194678,7.30045246 56.3594187,8.56132327 54.4253983,9.15358751 C54.61321,9.3212146 54.9505552,9.74721016 55.1579192,10.0072087 L58.1072796,13.8629033 C59.9490464,16.2539664 60.0988552,16.3648122 60.756747,16.6984363 C59.9297695,16.7908078 58.8221759,16.8285714 58.1072796,16.8285714 M52.866726,3.64987693 C52.5092779,3.64987693 52.0760992,3.64987693 51.7393048,3.68655384 C51.6266728,4.29783575 51.5319408,5.35494592 51.4008581,7.05947155 L51.3245768,8.06115883 C51.5140408,8.09865079 51.7572047,8.11794013 51.9832948,8.11794013 C53.7862325,8.11794013 55.0273873,7.04154061 55.0273873,5.41145554 C55.0273873,4.29783575 54.2378619,3.64987693 52.866726,3.64987693 M65.8301426,16.494404 C62.0909815,16.494404 59.9297695,13.4551104 59.9297695,10.0447007 C59.9297695,5.29979471 62.5409586,1.62857143 67.5201729,1.62857143 C69.0796714,1.62857143 69.812743,1.90677262 71.0706962,1.90677262 L70.6953481,5.55870655 C69.9815533,4.27936145 68.8161291,3.40808097 67.2577322,3.40808097 C64.1580122,3.40808097 62.8986822,6.7084599 62.8986822,9.54399289 C62.8986822,12.6207785 64.6462677,14.3068298 66.9754638,14.3068298 C68.2345185,14.3068298 69.3421121,13.9726624 71.2031558,12.694404 C70.451358,15.0675362 68.7040479,16.494404 65.8301426,16.494404 M91.3992523,16.3457946 C90.1586483,16.3457946 90.0658439,16.3093893 89.06923,12.9359283 L88.7131588,11.6940751 C88.1125467,11.9717329 87.0404776,12.1015964 85.330895,12.1015964 L83.6025864,12.1015964 L83.3015919,12.7316243 C82.8695147,13.6778887 82.2876287,14.7882483 82.2876287,15.5685157 C82.2876287,15.7535303 82.3060795,15.9570193 82.38181,16.2170178 L72.123213,16.2170178 C72.7062005,15.5685157 72.8937369,13.474128 73.1754545,9.67331297 L73.2319082,8.76562727 C73.3822677,6.59679907 73.4960012,4.92867867 73.476449,3.76153775 C73.4577229,2.79761411 73.3632662,2.18578884 73.1005501,1.90813102 L77.0658013,1.90813102 C76.5009891,2.33466995 76.2936251,4.63227487 76.0317352,8.43308991 L75.95628,9.34050394 C75.8618234,10.7497125 75.6745624,12.1950546 75.6745624,13.6039915 C75.6745624,14.2519503 75.9375539,14.4000163 76.614998,14.4000163 C79.0182724,14.4000163 79.6205367,14.3445934 80.7094042,13.6219224 C81.3854714,12.3982719 82.1568214,10.8594716 82.9075177,9.2657917 L83.9231331,7.13445546 C84.8809179,5.13271099 85.8194259,3.09265951 85.8194259,2.70442758 C85.8194259,2.42513967 85.7445215,2.16677119 85.632991,1.90677262 L88.7891647,1.90677262 C88.7891647,1.90677262 90.0663947,6.57832477 90.3478369,7.57811029 L90.9671751,9.84039669 C92.0381426,13.6406684 92.7153114,15.4935317 93.6171933,16.2164745 C92.8645694,16.3093893 91.7936018,16.3457946 91.3992523,16.3457946 M86.8336644,5.26311779 L84.5047437,10.2476463 L88.2989815,10.2476463 L86.8336644,5.26311779 M100.4927,8.50535702 C100.153152,9.06175939 99.7227273,9.82056399 99.4583589,10.3777814 C99.2336457,11.4338049 99.120463,12.8435568 99.120463,14.3997447 C99.120463,15.0487902 99.2336457,15.9195273 99.5340894,16.2164745 L95.6076673,16.2164745 C96.3016345,15.5679723 96.584729,11.5832293 96.5475522,10.3223585 C96.0212938,8.52464636 95.3063975,6.80083138 94.2167038,4.70590038 C93.5232874,3.39015004 92.7147606,2.14721016 92.2069529,1.90677262 C93.0892826,1.83341879 94.2167038,1.77772421 94.7627899,1.77772421 C95.73875,1.77772421 96.0025677,1.90677262 96.6042813,3.20513538 C97.5416877,5.29979471 98.2375826,6.87391353 98.651209,8.04295621 C99.6472722,6.50388422 100.342341,5.44786077 101.244498,4.0019753 C101.469762,3.64987693 101.657574,3.20513538 101.657574,2.77832477 C101.657574,2.44415733 101.600569,2.07358466 101.450761,1.90677262 L105.340281,1.90677262 C104.588484,2.07358466 101.20622,7.3197418 100.4927,8.50535702 M113.625478,5.29925135 C113.022938,4.22339519 111.726156,3.40753761 110.317843,3.40753761 C109.078341,3.40753761 107.988647,3.90824541 107.988647,5.2063365 C107.988647,6.29930854 109.360334,7.04099725 110.78875,7.94976968 C112.347697,8.91314997 113.963925,10.0987652 113.963925,12.1575626 C113.963925,14.8453012 111.315008,16.494404 108.251914,16.494404 C106.99341,16.494404 105.678177,16.2539664 104.194409,15.6978357 L104.437573,12.1200707 C105.151919,13.5482969 106.486704,14.6782175 108.457901,14.6782175 C109.980223,14.6782175 111.107093,13.9558182 111.107093,12.694404 C111.107093,11.6196346 110.185659,10.9526581 109.05989,10.2856816 C106.691865,8.87701641 105.189922,7.74546569 105.189922,5.70677262 C105.189922,2.64764628 107.781834,1.62857143 110.468754,1.62857143 C112.027151,1.62857143 113.005038,1.90677262 114,1.90677262 L113.625478,5.29925135" id="Fill-1"></path>
                        <path d="M8.29944207,0.00110381688 C7.79067211,0.00110381688 7.68557279,0.0885813048 7.52053617,0.270987045 C7.45558089,0.267123686 7.38755904,0.26546796 7.31674941,0.26546796 C6.92534502,0.26546796 6.42270818,0.32231453 5.99394753,0.606271423 C5.57996211,0.876982513 5.3831448,1.35603904 5.60365825,1.7065009 C5.60365825,1.7065009 5.75168939,1.49125661 6.23843588,1.49125661 C6.30701529,1.49125661 6.38284292,1.49898333 6.46368856,1.50533027 C7.13638001,1.58397723 7.63399884,1.93471504 7.57350401,2.8602655 C7.51969984,3.78526404 7.16927582,4.81650497 5.73579905,4.82864695 C5.73579905,4.82864695 5.55124797,4.82864695 5.35415188,4.81070993 C4.68703599,4.73868588 4.47711611,4.32392668 4.47711611,4.32392668 C4.47711611,4.32392668 5.05390791,4.16911637 5.05864714,3.44446058 C5.05390791,2.95133039 4.62040803,2.50069715 3.99483007,2.31829141 C3.78964942,2.2592372 3.56467553,2.22998606 3.33050196,2.22998606 C2.59285521,2.22998606 1.76488438,2.53601929 1.20649193,3.25736362 C-0.0594392331,4.91170917 -0.162308337,7.32354906 0.146577752,9.56650497 C0.457415287,11.814428 1.89758274,13.8965026 1.939957,13.9530733 C1.97034381,13.9928107 1.99794284,14.014887 2.0288872,14.014887 C2.04505633,14.014887 2.06150424,14.0077122 2.07878847,13.9933626 C2.70074232,13.3961976 3.29370325,12.5793731 3.54767006,12.0335357 C3.81919989,12.2479521 3.67730186,12.7032766 3.52787682,13.1900598 C3.38597879,13.6881572 3.04113033,14.3485157 2.91651654,14.5615523 C2.79608442,14.7698978 2.63467192,15.0119096 2.85156125,15.1382966 C2.87358472,15.1518184 2.9017413,15.1589932 2.93547345,15.1589932 C3.21425151,15.1589932 3.87049506,14.677729 4.60256624,13.7118893 C5.42217373,12.6243537 5.83783181,11.6593418 5.83783181,11.6593418 C5.8977691,11.6725876 5.9981292,11.7730349 5.98168129,12.0467815 C5.97053017,12.3246674 5.68199488,13.3586679 5.11997831,14.3211962 C4.55182863,15.2828966 4.02688955,15.8847528 3.92123266,16.0216261 C3.85571982,16.1011009 3.91147543,16.1504967 3.9538497,16.1827834 C3.99538763,16.2103788 5.00010375,17.1389647 6.45978566,17.9237785 C8.18932474,18.8360832 8.95624318,19 8.95624318,19 C8.95624318,19 9.72148895,18.8402225 11.451028,17.9284698 C12.9101524,17.1428281 13.9193289,16.2098269 13.9564064,16.1783681 C13.9987807,16.1502208 14.0525849,16.1049643 13.9890235,16.0180387 C13.8892209,15.8872364 13.3628879,15.2823447 12.7958534,14.3203683 C12.2357883,13.3647389 11.9358231,12.3241155 11.9316414,12.049817 C11.9199327,11.7730349 12.0141597,11.6816941 12.071588,11.6587899 C12.071588,11.6587899 12.4919853,12.6295968 13.3115928,13.7110614 C14.0470093,14.678281 14.6971197,15.1584413 14.9772917,15.1584413 C15.0126965,15.1584413 15.0408531,15.1509905 15.0642704,15.1380207 C15.2744691,15.0113577 15.1177958,14.7654825 14.9945759,14.5598966 C14.8794406,14.3479637 14.5295741,13.6914687 14.3809854,13.1895079 C14.2385298,12.6974816 14.0904987,12.2421571 14.3670465,12.0329838 C14.6212921,12.5785453 15.2103501,13.3995091 15.8339767,13.9889473 C15.8507033,14.0057805 15.8693815,14.0143351 15.8877808,14.0143351 C15.9153798,14.0143351 15.9446515,13.9928107 15.9705779,13.9561088 C16.0162975,13.8956748 17.458974,11.8169116 17.7670237,9.56595306 C18.0767461,7.31830593 17.9747134,4.91170917 16.7073883,3.25681171 C16.15262,2.53325975 15.318516,2.2261227 14.5761301,2.2261227 C14.3441867,2.2261227 14.1228369,2.25537385 13.9204441,2.31277232 C13.2898481,2.50069715 12.8582997,2.95602161 12.8619238,3.44390867 C12.8619238,4.16856446 13.4415034,4.32309882 13.4415034,4.32309882 C13.4415034,4.32309882 13.2477526,4.72792366 12.5566618,4.80988207 C12.4275876,4.82561146 12.3021374,4.83306222 12.1825416,4.83306222 C11.6626206,4.83306222 11.2246602,4.66969732 10.8209896,4.10537094 C10.4295852,3.56229303 10.442409,2.44440249 10.419828,2.07131238 C10.4019862,1.69297914 10.3203042,0.844695869 9.91830626,0.497821414 C9.51770219,0.142944286 9.02984058,0.0234561088 8.42126808,0 C8.37666359,0.00110381688 8.33679833,0.00110381688 8.29944207,0.00110381688" id="Fill-4"></path>
                    </g>
                </g>
            </g>
        </g>
    </g>
</svg>