<?xml version="1.0" encoding="UTF-8"?>
<svg width="94px" height="50px" viewBox="0 0 94 50" version="1.1" xmlns="http://www.w3.org/2000/svg" xmlns:xlink="http://www.w3.org/1999/xlink">
    <!-- Generator: Sketch 43.2 (39069) - http://www.bohemiancoding.com/sketch -->
    <title>barclays_dots_m</title>
    <desc>Created with Sketch.</desc>
    <defs></defs>
    <g id="Pages" stroke="none" stroke-width="1" fill="none" fill-rule="evenodd">
        <g id="landing-mobile" transform="translate(-174.000000, -6325.000000)" fill="#5A9AEF">
            <g id="barclays_dots_m" transform="translate(174.000000, 6325.000000)">
                <circle id="Oval" cx="3" cy="3" r="3"></circle>
                <circle id="Oval" cx="14" cy="3" r="3"></circle>
                <circle id="Oval" cx="25" cy="3" r="3"></circle>
                <circle id="Oval" cx="36" cy="3" r="3"></circle>
                <circle id="Oval" cx="47" cy="3" r="3"></circle>
                <circle id="Oval" cx="58" cy="3" r="3"></circle>
                <circle id="Oval" cx="69" cy="3" r="3"></circle>
                <circle id="Oval" cx="80" cy="3" r="3"></circle>
                <circle id="Oval" cx="91" cy="3" r="3"></circle>
                <circle id="Oval" cx="3" cy="14" r="3"></circle>
                <circle id="Oval" cx="14" cy="14" r="3"></circle>
                <circle id="Oval" cx="25" cy="14" r="3"></circle>
                <circle id="Oval" cx="36" cy="14" r="3"></circle>
                <circle id="Oval" cx="47" cy="14" r="3"></circle>
                <circle id="Oval" cx="58" cy="14" r="3"></circle>
                <circle id="Oval" cx="69" cy="14" r="3"></circle>
                <circle id="Oval" cx="80" cy="14" r="3"></circle>
                <circle id="Oval" cx="91" cy="14" r="3"></circle>
                <circle id="Oval" cx="3" cy="25" r="3"></circle>
                <circle id="Oval" cx="14" cy="25" r="3"></circle>
                <circle id="Oval" cx="25" cy="25" r="3"></circle>
                <circle id="Oval" cx="36" cy="25" r="3"></circle>
                <circle id="Oval" cx="47" cy="25" r="3"></circle>
                <circle id="Oval" cx="58" cy="25" r="3"></circle>
                <circle id="Oval" cx="69" cy="25" r="3"></circle>
                <circle id="Oval" cx="80" cy="25" r="3"></circle>
                <circle id="Oval" cx="91" cy="25" r="3"></circle>
                <circle id="Oval" cx="3" cy="36" r="3"></circle>
                <circle id="Oval" cx="14" cy="36" r="3"></circle>
                <circle id="Oval" cx="25" cy="36" r="3"></circle>
                <circle id="Oval" cx="36" cy="36" r="3"></circle>
                <circle id="Oval" cx="47" cy="36" r="3"></circle>
                <circle id="Oval" cx="58" cy="36" r="3"></circle>
                <circle id="Oval" cx="69" cy="36" r="3"></circle>
                <circle id="Oval" cx="80" cy="36" r="3"></circle>
                <circle id="Oval" cx="91" cy="36" r="3"></circle>
                <circle id="Oval" cx="3" cy="47" r="3"></circle>
                <circle id="Oval" cx="14" cy="47" r="3"></circle>
                <circle id="Oval" cx="25" cy="47" r="3"></circle>
                <circle id="Oval" cx="36" cy="47" r="3"></circle>
                <circle id="Oval" cx="47" cy="47" r="3"></circle>
                <circle id="Oval" cx="58" cy="47" r="3"></circle>
                <circle id="Oval" cx="69" cy="47" r="3"></circle>
                <circle id="Oval" cx="80" cy="47" r="3"></circle>
                <circle id="Oval" cx="91" cy="47" r="3"></circle>
            </g>
        </g>
    </g>
</svg>