<?xml version="1.0" encoding="UTF-8"?>
<svg width="185px" height="38px" viewBox="0 0 185 38" version="1.1" xmlns="http://www.w3.org/2000/svg" xmlns:xlink="http://www.w3.org/1999/xlink">
    <!-- Generator: Sketch 43.2 (39069) - http://www.bohemiancoding.com/sketch -->
    <title>bloomberg</title>
    <desc>Created with Sketch.</desc>
    <defs></defs>
    <g id="Pages" stroke="none" stroke-width="1" fill="none" fill-rule="evenodd" opacity="0.2">
        <g id="landing-3" transform="translate(-182.000000, -4702.000000)" fill="#23231E">
            <g id="logos" transform="translate(182.000000, 4685.000000)">
                <g id="bloomberg" transform="translate(0.000000, 17.000000)">
                    <path d="M4.8446875,15.9821871 L4.8446875,23.8825097 L9.30172697,23.8825097 C11.8004441,23.8825097 15.267977,23.4547032 15.267977,19.8581871 C15.267977,16.9898 13.4167599,15.9821871 9.49524671,15.9821871 L4.8446875,15.9821871 Z M0.000608552626,28.0625097 L0.000608552626,0.647348387 L10.6101151,0.647348387 C14.725148,0.647348387 18.9594572,2.54367097 18.9594572,7.54005806 C18.9594572,10.6388968 17.0291283,12.6908968 14.2297862,13.5367032 L14.2297862,13.6176065 C17.649852,14.0098645 20.1059704,16.717671 20.1059704,20.2430903 C20.1059704,26.2090903 14.9551809,28.0625097 9.80195724,28.0625097 L0.000608552626,28.0625097 Z M4.8446875,4.82612258 L4.8446875,11.8021871 L9.26643092,11.8021871 C12.4990625,11.8021871 14.1092928,10.4072194 14.1092928,8.35276774 C14.1092928,5.99063871 12.4990625,4.82612258 8.84409539,4.82612258 L4.8446875,4.82612258 Z" id="Fill-1"></path>
                    <polygon id="Fill-3" points="23.1505592 28.0631226 28.0189803 28.0631226 28.0189803 -0.00049032258 23.1505592 -0.00049032258"></polygon>
                    <path d="M30.9708257,18.7701613 C30.9708257,24.6184839 35.4278651,28.525129 41.0082928,28.525129 C46.5814178,28.525129 51.046977,24.6184839 51.046977,18.7701613 C51.046977,12.9218387 46.5826349,9.01029032 41.0082928,9.01029032 C35.4278651,9.00906452 30.9708257,12.9218387 30.9708257,18.7701613 M35.5860888,18.7701613 C35.5860888,15.8662258 37.6247401,13.1964194 41.0082928,13.1964194 C44.3930625,13.1964194 46.4256283,15.8674516 46.4256283,18.7701613 C46.4256283,21.6740968 44.3930625,24.345129 41.0082928,24.345129 C37.623523,24.345129 35.5860888,21.6740968 35.5860888,18.7701613" id="Fill-5"></path>
                    <path d="M53.1271316,18.7701613 C53.1271316,24.6184839 57.5853882,28.525129 63.1658158,28.525129 C68.7389408,28.525129 73.2032829,24.6184839 73.2032829,18.7701613 C73.2032829,12.9218387 68.7389408,9.01029032 63.1658158,9.01029032 C57.5853882,9.00906452 53.1271316,12.9218387 53.1271316,18.7701613 M57.7423947,18.7701613 C57.7423947,15.8662258 59.7810461,13.1964194 63.1658158,13.1964194 C66.5493684,13.1964194 68.5819342,15.8674516 68.5819342,18.7701613 C68.5819342,21.6740968 66.5493684,24.345129 63.1658158,24.345129 C59.7810461,24.345129 57.7423947,21.6740968 57.7423947,18.7701613" id="Fill-6"></path>
                    <path d="M76.0144309,9.47487097 L80.3996612,9.47487097 L80.3996612,12.3824839 L80.4714704,12.3824839 C81.2796283,10.6381613 83.0468651,9.0066129 86.1237072,9.0066129 C88.9717336,9.0066129 90.9385757,10.1282258 91.8964375,12.4560323 C93.2413388,10.0975806 95.2020954,9.0066129 97.9673586,9.0066129 C102.888115,9.0066129 104.620056,12.5369355 104.620056,16.9902903 L104.620056,28.063 L100.003576,28.063 L100.003576,17.530871 C100.003576,15.2104194 99.3171283,13.1951935 96.5835099,13.1951935 C93.7026217,13.1951935 92.6218322,15.5953226 92.6218322,17.9917742 L92.6218322,28.063 L88.0126546,28.063 L88.0126546,16.9902903 C88.0126546,14.6992581 87.0900888,13.1951935 84.8579178,13.1951935 C81.8224572,13.1951935 80.628477,15.4347419 80.628477,17.917 L80.628477,28.063 L76.0144309,28.063 L76.0144309,9.47487097 Z" id="Fill-7"></path>
                    <path d="M108.359855,28.0631226 L112.746303,28.0631226 L112.746303,25.2768645 L112.816895,25.2768645 C114.169099,27.5164129 116.587487,28.5240258 119.168967,28.5240258 C124.852849,28.5240258 128.277783,24.2643484 128.277783,18.7702839 C128.277783,13.2713161 124.621599,9.0091871 119.356401,9.0091871 C115.899822,9.0091871 114.048605,10.6321548 113.088309,11.8420258 L112.973901,11.8420258 L112.973901,-0.00049032258 L108.359855,-0.00049032258 L108.359855,28.0631226 Z M123.663737,18.7702839 C123.663737,21.6778968 121.631171,24.3452516 118.241533,24.3452516 C114.856763,24.3452516 112.816895,21.6778968 112.816895,18.7702839 C112.816895,15.8663484 114.856763,13.1891871 118.241533,13.1891871 C121.631171,13.1891871 123.663737,15.8663484 123.663737,18.7702839 L123.663737,18.7702839 Z" id="Fill-8"></path>
                    <path d="M149.054378,20.3958258 L149.054378,19.1197613 C149.054378,12.6499548 145.555201,9.01053548 140.404411,9.01053548 C134.817898,9.01053548 130.365727,12.9220839 130.365727,18.7704065 C130.365727,24.6175032 134.817898,28.5253742 140.404411,28.5253742 C143.318161,28.5253742 146.056648,27.4797613 148.203622,24.8136323 L144.896747,22.300729 C143.746582,23.7251161 142.243457,24.8136323 139.93826,24.8136323 C137.364082,24.8136323 135.281615,23.1453097 134.98099,20.3958258 L149.054378,20.3958258 Z M134.98099,16.9108581 C135.324214,14.2361484 137.018424,12.4955032 139.745957,12.4955032 C142.62928,12.4955032 144.397734,14.1993742 144.440332,16.9108581 L134.98099,16.9108581 Z" id="Fill-9"></path>
                    <path d="M152.059168,9.47487097 L156.673214,9.47487097 L156.673214,12.4180323 L156.751109,12.4180323 C157.752786,10.2888065 159.785352,9.0066129 162.209826,9.0066129 C162.789168,9.0066129 163.327128,9.12551613 163.861438,9.28364516 L163.861438,13.7737742 C163.095878,13.5825484 162.361964,13.426871 161.631701,13.426871 C157.289069,13.426871 156.67078,17.1091935 156.67078,18.1180323 L156.67078,28.063 L152.056734,28.063 L152.056734,9.47487097 L152.059168,9.47487097 Z" id="Fill-10"></path>
                    <path d="M179.643763,9.47487097 L179.643763,12.2635806 L179.571954,12.2635806 C178.21975,10.0154516 175.795276,9.0066129 173.221099,9.0066129 C167.532349,9.0066129 164.111066,13.2687419 164.111066,18.7701613 C164.111066,24.0325484 167.764816,28.2946774 173.298993,28.2946774 C175.610276,28.2946774 177.992151,27.4071935 179.344355,25.5880968 L179.408862,25.5880968 L179.408862,26.9450645 C179.408862,30.6200323 178.03475,33.1795161 173.570408,33.1795161 C170.993796,33.1795161 169.069553,32.2062258 167.223204,30.4925484 L164.460375,34.2962258 C167.066197,36.6289355 170.185638,37.3582903 173.610572,37.3582903 C180.80123,37.3582903 184.030211,33.0949355 184.030211,26.3983548 L184.030211,9.47487097 L179.643763,9.47487097 Z M174.186263,13.1951935 C177.528434,13.1951935 179.643763,15.4347419 179.643763,18.6573871 C179.643763,21.7500968 177.568599,24.1134516 174.147316,24.1134516 C171.036395,24.1134516 168.725112,21.6740968 168.725112,18.7309355 C168.725112,15.4347419 170.94998,13.1951935 174.186263,13.1951935 L174.186263,13.1951935 Z" id="Fill-11"></path>
                </g>
            </g>
        </g>
    </g>
</svg>