<?xml version="1.0" encoding="UTF-8"?>
<svg width="52px" height="30px" viewBox="0 0 52 30" version="1.1" xmlns="http://www.w3.org/2000/svg" xmlns:xlink="http://www.w3.org/1999/xlink">
    <!-- Generator: Sketch 43.2 (39069) - http://www.bohemiancoding.com/sketch -->
    <title>csc_logo_m</title>
    <desc>Created with Sketch.</desc>
    <defs></defs>
    <g id="Pages" stroke="none" stroke-width="1" fill="none" fill-rule="evenodd" opacity="0.2">
        <g id="landing-mobile" transform="translate(-30.000000, -6725.000000)" fill="#23231E">
            <g id="lithuania" transform="translate(-37.000000, 4496.000000)">
                <g id="other_offices" transform="translate(67.000000, 1718.000000)">
                    <path d="M33.0440727,525.972509 C33.0440727,521.959127 36.2973091,518.705891 40.3106909,518.705891 C42.5940364,518.705891 44.6286545,519.760727 45.9607273,521.407273 L43.3416727,523.683055 C42.6466909,522.760873 41.5528727,522.155782 40.3089455,522.155782 C38.2059636,522.155782 36.5009455,523.8608 36.5009455,525.963782 C36.5009455,528.066764 38.2059636,529.771782 40.3089455,529.771782 C41.6474182,529.771782 42.8200727,529.077673 43.4987636,528.033018 L46.2856727,530.103127 C44.9739636,531.996655 42.7886545,533.239127 40.3106909,533.239127 C36.2973091,533.239127 33.0440727,529.9856 33.0440727,525.972509 Z M20.4680727,530.501091 L22.7531636,528.500218 C22.7531636,528.500218 24.3813818,530.198255 26.2964364,530.198255 C27.1813818,530.198255 28.1364364,529.705164 28.1364364,528.906327 C28.1364364,527.689455 26.8488727,527.653673 25.4242909,527.356655 C22.1032727,526.664291 21.0196364,524.813818 21.0196364,522.9328 C21.0196364,520.682909 23.0420364,518.605818 26.3930182,518.605818 C29.9752727,518.605818 31.4210909,521.096873 31.4210909,521.096873 L29.5022545,522.801891 C29.5022545,522.801891 28.2923636,521.450036 26.4034909,521.594036 C25.3000727,521.677818 24.5125818,522.171491 24.5125818,522.959273 C24.5125818,523.733673 24.9570909,524.372218 27.2168727,524.682327 C30.5105455,525.1344 31.7530182,527.182109 31.7530182,529.063127 C31.7530182,530.943855 29.8426182,533.488436 25.9700364,533.488436 C22.8410182,533.488436 20.4680727,530.501091 20.4680727,530.501091 Z M6.15883636,525.972509 C6.15883636,521.959127 9.41236364,518.705891 13.4257455,518.705891 C15.7088,518.705891 17.7437091,519.760727 19.0754909,521.407273 L16.4564364,523.683055 C15.7614545,522.760873 14.6676364,522.155782 13.424,522.155782 C11.3210182,522.155782 9.616,523.8608 9.616,525.963782 C9.616,528.066764 11.3210182,529.771782 13.424,529.771782 C14.7624727,529.771782 15.9348364,529.077673 16.6138182,528.033018 L19.4004364,530.103127 C18.0887273,531.996655 15.9034182,533.239127 13.4257455,533.239127 C9.41236364,533.239127 6.15883636,529.9856 6.15883636,525.972509 Z M7.96567273,511 L0,519.076509 L0,540.208436 L44.1445818,540.208436 L52,532.684945 L52,511 L7.96567273,511 Z" id="csc_logo_m"></path>
                </g>
            </g>
        </g>
    </g>
</svg>