<?xml version="1.0" encoding="UTF-8"?>
<svg width="68px" height="38px" viewBox="0 0 68 38" version="1.1" xmlns="http://www.w3.org/2000/svg" xmlns:xlink="http://www.w3.org/1999/xlink">
    <!-- Generator: Sketch 43.2 (39069) - http://www.bohemiancoding.com/sketch -->
    <title>csc_logo@3x</title>
    <desc>Created with Sketch.</desc>
    <defs></defs>
    <g id="Pages" stroke="none" stroke-width="1" fill="none" fill-rule="evenodd" opacity="0.2">
        <g id="landing" transform="translate(-1119.000000, -6238.000000)" fill="#23231E">
            <g id="lithuania" transform="translate(198.000000, 5142.000000)">
                <g id="other_offices" transform="translate(0.000000, 775.000000)">
                    <path d="M963.99014,340.479144 C963.99014,335.257759 968.222581,331.025318 973.443966,331.025318 C976.414585,331.025318 979.061611,332.397653 980.79463,334.539799 L977.387255,337.500578 C976.483088,336.300825 975.060037,335.513605 973.441696,335.513605 C970.705729,335.513605 968.48751,337.731823 968.48751,340.46779 C968.48751,343.203757 970.705729,345.421975 973.441696,345.421975 C975.183041,345.421975 976.708657,344.518943 977.59163,343.159854 L981.217382,345.853054 C979.510856,348.316521 976.667782,349.932971 973.443966,349.932971 C968.222581,349.932971 963.99014,345.700151 963.99014,340.479144 Z M947.628839,346.370802 L950.601729,343.767679 C950.601729,343.767679 952.720031,345.976814 955.211506,345.976814 C956.362814,345.976814 957.605334,345.335305 957.605334,344.296024 C957.605334,342.71288 955.930222,342.666328 954.07685,342.279909 C949.756225,341.379148 948.34642,338.971694 948.34642,336.524501 C948.34642,333.597406 950.977551,330.895124 955.337158,330.895124 C959.997649,330.895124 961.87865,334.135971 961.87865,334.135971 L959.382256,336.354189 C959.382256,336.354189 957.808195,334.595434 955.350783,334.782778 C953.915242,334.891777 952.890721,335.534042 952.890721,336.558942 C952.890721,337.566432 953.469025,338.397175 956.408988,338.800625 C960.694036,339.388769 962.310486,342.052827 962.310486,344.50002 C962.310486,346.946835 959.825067,350.25732 954.786861,350.25732 C950.716027,350.25732 947.628839,346.370802 947.628839,346.370802 Z M929.012609,340.479144 C929.012609,335.257759 933.245428,331.025318 938.466814,331.025318 C941.437054,331.025318 944.084459,332.397653 945.817099,334.539799 L942.409725,337.500578 C941.505558,336.300825 940.082507,335.513605 938.464543,335.513605 C935.728577,335.513605 933.510358,337.731823 933.510358,340.46779 C933.510358,343.203757 935.728577,345.421975 938.464543,345.421975 C940.205888,345.421975 941.731126,344.518943 942.614478,343.159854 L946.239851,345.853054 C944.533325,348.316521 941.690251,349.932971 938.466814,349.932971 C933.245428,349.932971 929.012609,345.700151 929.012609,340.479144 Z M931.363292,321 L921,331.50749 L921,359 L978.431835,359 L988.651687,349.211984 L988.651687,321 L931.363292,321 Z" id="csc_logo"></path>
                </g>
            </g>
        </g>
    </g>
</svg>