<?xml version="1.0" encoding="UTF-8"?>
<svg width="44px" height="44px" viewBox="0 0 44 44" version="1.1" xmlns="http://www.w3.org/2000/svg" xmlns:xlink="http://www.w3.org/1999/xlink">
    <!-- Generator: Sketch 43.2 (39069) - http://www.bohemiancoding.com/sketch -->
    <title>design</title>
    <desc>Created with Sketch.</desc>
    <defs></defs>
    <g id="Pages" stroke="none" stroke-width="1" fill="none" fill-rule="evenodd" opacity="0.3">
        <g id="landing-3" transform="translate(-980.000000, -1142.000000)" fill="#23231E">
            <g id="design_development" transform="translate(180.000000, 940.000000)">
                <g id="design_ux" transform="translate(783.000000, 187.000000)">
                    <path d="M34.597175,18.8314633 L34.5966876,31.5028815 L34.5973948,41.5036341 L34.5973948,56.5550238 L40.5979802,56.5550238 L40.5972989,41.5034927 L40.598006,31.5030229 L40.5980062,19.1252853 L40.5978778,18.8314633 L34.597175,18.8314633 Z M34.5972519,16.8314633 L40.5972989,16.8314633 L40.597299,13.1152695 C40.5975316,12.5718557 40.1481327,12.1243565 39.5970448,12.1243565 L35.5976488,12.1243565 C35.0425143,12.1243565 34.5976292,12.5677927 34.5973948,13.1162022 L34.5972519,16.8314633 Z M40.5951658,58.5550238 L34.5998617,58.5550238 L37.5978498,63.3511598 L40.5951658,58.5550238 Z M42.597355,40.7101429 L46.0109012,40.7101429 L46.0109012,38.7101429 L48.0109012,38.7101429 L48.0109012,40.7101429 L56.0109012,40.7101429 L56.0109012,38.7101429 L58.0109012,38.7101429 L58.0109012,40.7101429 L61.0109012,40.7101429 L61.0109012,32.7101429 L42.5979206,32.7101429 L42.597355,40.7101429 Z M32.596773,32.7101429 L15.0109012,32.7101429 L15.0109012,40.7101429 L18.0109012,40.7101429 L18.0109012,38.7101429 L20.0109012,38.7101429 L20.0109012,40.7101429 L28.0109012,40.7101429 L28.0109012,38.7101429 L30.0109012,38.7101429 L30.0109012,40.7101429 L32.5973387,40.7101429 L32.596773,32.7101429 Z M32.5967181,30.7101429 L32.5973948,13.1161253 C32.5981019,11.4607883 33.9401905,10.1243565 35.5976488,10.1243565 L39.5970448,10.1243565 C41.2488462,10.1243565 42.598006,11.4636167 42.5972989,13.1161253 L42.5972989,17.5058442 L42.598006,19.1244116 L42.598006,30.7101429 L63.0109012,30.7101429 L63.0109012,42.7101429 L42.5973535,42.7101429 L42.598006,57.12433 L42.598006,59.124028 L38.658007,65.428592 C38.0767652,66.3577304 37.122171,66.3648014 36.5373937,65.4278849 L32.5973948,59.1247351 L32.5973948,42.7101429 L13.0109012,42.7101429 L13.0109012,30.7101429 L32.5967181,30.7101429 Z M23.0109012,36.7101429 L25.0109012,36.7101429 L25.0109012,40.7101429 L23.0109012,40.7101429 L23.0109012,36.7101429 Z M51.0109012,36.7101429 L53.0109012,36.7101429 L53.0109012,40.7101429 L51.0109012,40.7101429 L51.0109012,36.7101429 Z" id="design" transform="translate(38.010901, 38.126184) rotate(-315.000000) translate(-38.010901, -38.126184) "></path>
                </g>
            </g>
        </g>
    </g>
</svg>