<?xml version="1.0" encoding="UTF-8"?>
<svg width="42px" height="40px" viewBox="0 0 42 40" version="1.1" xmlns="http://www.w3.org/2000/svg" xmlns:xlink="http://www.w3.org/1999/xlink">
    <!-- Generator: Sketch 43.2 (39069) - http://www.bohemiancoding.com/sketch -->
    <title>development</title>
    <desc>Created with Sketch.</desc>
    <defs></defs>
    <g id="Pages" stroke="none" stroke-width="1" fill="none" fill-rule="evenodd" opacity="0.3">
        <g id="landing-3" transform="translate(-180.000000, -1145.000000)" fill="#23231E">
            <g id="design_development" transform="translate(180.000000, 940.000000)">
                <g id="web_development" transform="translate(0.000000, 205.000000)">
                    <path d="M40,36.993 C40,37.548 39.547,38 38.996,38 L3.004,38 C2.448,38 2,37.552 2,36.993 L2,15 L2,11 L2,10 L5,10 L11,10 L14,10 L17,10 L29.56,10 L40,10 L40,15 L40,36.993 Z M3.004,2 L5,2 L11,2 L14,2 L17,2 L38.996,2 C39.549,2 39.995,2.445 39.999,3 C39.999,3.002 40,3.004 40,3.007 L40,8 L17,8 L14,8 L11,8 L5,8 L2,8 L2,3.007 C2,3.004 2.001,3.002 2.001,3 C2.005,2.449 2.455,2 3.004,2 L3.004,2 Z M41.999,3 C41.999,3.002 42,3.005 42,3.007 L42,15 L42,36.993 C42,38.654 40.65,40 38.996,40 L3.004,40 C1.345,40 0,38.657 0,36.993 L0,15 L0,11 L0,3.007 C0,3.005 0.001,3.002 0.001,3 C0.004,1.697 0.842,0.599 2,0.185 C2.315,0.072 2.65,0 3.004,0 L5,0 L11,0 L14,0 L17,0 L38.996,0 C40.653,0 41.995,1.339 41.999,3 Z M5,5.9998 C5.553,5.9998 6,5.5528 6,4.9998 C6,4.4468 5.553,3.9998 5,3.9998 C4.447,3.9998 4,4.4468 4,4.9998 C4,5.5528 4.447,5.9998 5,5.9998 Z M8,5.9998 C8.553,5.9998 9,5.5528 9,4.9998 C9,4.4468 8.553,3.9998 8,3.9998 C7.447,3.9998 7,4.4468 7,4.9998 C7,5.5528 7.447,5.9998 8,5.9998 Z M11,5.9998 C11.553,5.9998 12,5.5528 12,4.9998 C12,4.4468 11.553,3.9998 11,3.9998 C10.447,3.9998 10,4.4468 10,4.9998 C10,5.5528 10.447,5.9998 11,5.9998 Z M29.707,17.2928 C29.663,17.2498 29.608,17.2288 29.56,17.1948 C29.17,16.9258 28.64,16.9448 28.293,17.2928 C27.902,17.6838 27.902,18.3158 28.293,18.7068 L29.56,19.9738 L32.53,22.9438 L29.56,25.9158 L28.293,27.1828 C27.902,27.5718 27.902,28.2058 28.293,28.5968 C28.64,28.9428 29.17,28.9648 29.56,28.6938 C29.608,28.6608 29.663,28.6408 29.707,28.5968 L34.652,23.6508 C35.043,23.2608 35.043,22.6278 34.652,22.2368 L29.707,17.2928 Z M23.9238,14.0682 C23.6018,13.9422 23.2648,14.0102 22.9998,14.1932 C22.8418,14.3022 22.7028,14.4432 22.6278,14.6352 L22.4858,15.0002 L19.1108,23.6222 L16.0688,31.3982 C15.8668,31.9122 16.1208,32.4922 16.6358,32.6932 C17.1508,32.8942 17.7308,32.6402 17.9318,32.1272 L19.1108,29.1112 L22.9998,19.1722 L24.4898,15.3642 C24.5368,15.2442 24.5538,15.1212 24.5538,15.0002 C24.5538,14.6002 24.3188,14.2222 23.9238,14.0682 Z M13.8184,18.7068 C14.2094,18.3158 14.2094,17.6838 13.8184,17.2928 C13.4274,16.9018 12.7954,16.9018 12.4044,17.2928 L11.0004,18.6968 L7.4594,22.2368 C7.0684,22.6278 7.0684,23.2608 7.4594,23.6508 L11.0004,27.1918 L12.4044,28.5968 C12.7954,28.9868 13.4274,28.9868 13.8184,28.5968 C14.2094,28.2058 14.2094,27.5718 13.8184,27.1828 L11.0004,24.3638 L9.5804,22.9438 L11.0004,21.5248 L13.8184,18.7068 Z" id="development"></path>
                </g>
            </g>
        </g>
    </g>
</svg>