<?xml version="1.0" encoding="UTF-8"?>
<svg width="20px" height="20px" viewBox="0 0 20 20" version="1.1" xmlns="http://www.w3.org/2000/svg" xmlns:xlink="http://www.w3.org/1999/xlink">
    <!-- Generator: Sketch 43.2 (39069) - http://www.bohemiancoding.com/sketch -->
    <title>dribbble</title>
    <desc>Created with Sketch.</desc>
    <defs></defs>
    <g id="Symbols" stroke="none" stroke-width="1" fill="none" fill-rule="evenodd" opacity="0.3">
        <g id="footer" transform="translate(-100.000000, -29.000000)" fill="#23231E">
            <g id="Group-16" transform="translate(60.000000, 29.000000)">
                <g id="soc">
                    <path d="M53.12,10.9287708 C53.8,12.8989156 54.26,14.9229822 54.5,16.9999721 C56.591,15.6519258 58.01,13.4351385 58.28,10.9287708 C56.253,10.789972 54.892,10.8019546 53.12,10.9287708 M51.94,7.91314123 C52.14,8.3395233 52.367,8.87874183 52.62,9.53079684 C54.441,9.35904575 56.473,9.36104286 58.3,9.45091261 C58.193,7.6405363 57.54,6.02887201 56.34,4.61791684 C55.473,5.90904567 54.007,7.0074538 51.94,7.91314123 M47.96,1.96176626 C49.133,3.17301087 50.22,4.68481988 51.22,6.49519619 C53.033,5.73629602 54.4,4.77069542 55.32,3.59939293 C53.089,1.75606438 50.34,1.30971125 47.96,1.96176626 M44.9,16.5805799 C47.3,18.4468752 50.276,18.7993644 52.94,17.7788434 C52.673,15.5021429 52.153,13.2983367 51.38,11.1684235 C48.78,11.7326059 46.035,14.3398274 44.9,16.5805799 M41.92,7.95308334 C43.09,8.05892995 46.288,8.07490679 49.56,7.0943279 C48.547,5.29693277 47.433,3.7991035 46.22,2.60084008 C44.073,3.68626703 42.524,5.69835102 41.92,7.95308334 M43.76,15.5021429 C45.012,13.0536913 48.125,10.3975407 50.86,9.79042058 C50.66,9.3240964 50.467,8.90470421 50.28,8.532244 C47.508,9.41796037 44.348,9.75047847 41.68,9.61068107 C41.68,11.7415928 42.029,13.5429822 43.76,15.5021429 M40,10.0101022 C40,6.26253337 42.008,3.09212809 44.98,1.36263455 C51.603,-2.49078088 60,2.28030462 60,10.0101022 C60,13.757671 57.992,16.9280763 55.02,18.6575699 C51.948,20.4449795 48.061,20.4499722 44.98,18.6575699 C42.005,16.9270778 40,13.7546754 40,10.0101022" id="dribbble"></path>
                </g>
            </g>
        </g>
    </g>
</svg>