<?xml version="1.0" encoding="UTF-8"?>
<svg width="160px" height="100px" viewBox="0 0 160 100" version="1.1" xmlns="http://www.w3.org/2000/svg" xmlns:xlink="http://www.w3.org/1999/xlink">
    <!-- Generator: Sketch 43.2 (39069) - http://www.bohemiancoding.com/sketch -->
    <title>flag</title>
    <desc>Created with Sketch.</desc>
    <defs></defs>
    <g id="Pages" stroke="none" stroke-width="1" fill="none" fill-rule="evenodd">
        <g id="landing-3" transform="translate(-640.000000, -5460.000000)">
            <g id="flag" transform="translate(640.000000, 5460.000000)">
                <path d="M0,7.99446106 C0,6.34066588 1.31301727,4.69626456 2.93442315,4.35017103 C2.93442315,4.35017103 40.050944,-5 80.0339627,5 C120.016981,15 157.087554,5.64626038 157.087554,5.64626038 C158.696054,5.28934063 160,6.34209558 160,7.99446106 L160,92.0055389 C160,93.6593341 158.689593,95.3037354 157.071249,95.649829 C157.071249,95.649829 120.032776,105 80.0218506,95 C40.0109253,85 2.91447828,94.3537396 2.91447828,94.3537396 C1.30485637,94.7106594 0,93.6579044 0,92.0055389 L0,7.99446106 Z" id="Rectangle-15" fill="#07519F"></path>
                <g id="Group-12" transform="translate(47.000000, 16.000000)" fill="#FBED22">
                    <polygon id="Fill-2" points="34.4540334 3.60684436 38.1452204 3.60684436 35.1713165 5.89677943 36.327163 9.53073181 33.3653482 7.29323274 30.4062198 9.53073181 31.5721405 5.89677943 28.5740585 3.60684436 32.2518132 3.60684436 33.3653482 0.064654966"></polygon>
                    <polygon id="Fill-3" points="34.6153549 62.2139341 38.3065419 62.2139341 35.332638 64.5073189 36.4851265 68.1378216 33.5259981 65.9003225 30.5668697 68.1378216 31.7334621 64.5073189 28.7353801 62.2139341 32.4124631 62.2139341 33.5259981 58.6724347"></polygon>
                    <polygon id="Fill-4" points="48.7415328 58.3249082 52.4300333 58.3249082 49.4594874 60.618293 50.6119759 64.2487957 47.6535192 62.0140564 44.6903611 64.2487957 45.8582967 60.618293 42.8595431 58.3249082 46.5359545 58.3249082 47.6535192 54.7861686"></polygon>
                    <polygon id="Fill-5" points="48.7415328 7.46489163 52.4300333 7.46489163 49.4594874 9.75551664 50.6119759 13.389469 47.6535192 11.15128 44.6903611 13.389469 45.8582967 9.75551664 42.8595431 7.46489163 46.5359545 7.46489163 47.6535192 3.92339218"></polygon>
                    <polygon id="Fill-6" points="59.2243425 18.2344859 62.9155295 18.2344859 59.9416256 20.5251109 61.0947857 24.1590633 58.1356573 21.924324 55.1765289 24.1590633 56.3424497 20.5251109 53.3443677 18.2344859 57.0221224 18.2344859 58.1356573 14.6957462"></polygon>
                    <polygon id="Fill-7" points="59.2243425 47.7055155 62.9155295 47.7055155 59.9416256 49.9961405 61.0947857 53.6294029 58.1356573 51.3919039 55.1765289 53.6294029 56.3424497 49.9961405 53.3443677 47.7055155 57.0221224 47.7055155 58.1356573 44.1633261"></polygon>
                    <polygon id="Fill-8" points="63.1569745 32.7462853 66.8481615 32.7462853 63.8742576 35.0369103 65.0274177 38.6701727 62.066946 36.4326737 59.1078176 38.6701727 60.2750816 35.0369103 57.2736416 32.7462853 60.9534111 32.7462853 62.066946 29.2040959"></polygon>
                    <polygon id="Fill-9" points="20.0523598 7.50125185 23.7435467 7.50125185 20.770986 9.79187686 21.9234745 13.4251393 18.9643461 11.1876402 16.0038745 13.4251393 17.1718101 9.79187686 14.1737281 7.50125185 17.849468 7.50125185 18.9643461 3.9597524"></polygon>
                    <polygon id="Fill-10" points="9.86109734 18.2736059 13.5522843 18.2736059 10.5783804 20.5614711 11.7315405 24.1981833 8.77174049 21.9599943 5.80992563 24.1981833 6.97651801 20.5614711 3.97843603 18.2736059 7.65551911 18.2736059 8.77174049 14.7321065"></polygon>
                    <polygon id="Fill-11" points="6.07279509 32.7827145 9.76398205 32.7827145 6.79142137 35.0726496 7.94659633 38.7066019 4.98478147 36.4691029 2.02430984 38.7066019 3.19023061 35.0726496 0.192148625 32.7827145 3.86990331 32.7827145 4.98478147 29.2405251"></polygon>
                    <polygon id="Fill-12" points="9.86109734 47.7411858 13.5522843 47.7411858 10.5783804 50.0345706 11.7315405 53.6657632 8.77174049 51.4275741 5.80992563 53.6657632 6.97651801 50.0345706 3.97843603 47.7411858 7.65551911 47.7411858 8.77174049 44.1996863"></polygon>
                    <polygon id="Fill-13" points="20.1999132 58.3639592 23.8911002 58.3639592 20.9185395 60.6545842 22.0696848 64.2878467 19.1105564 62.0503476 16.1514279 64.2878467 17.3153339 60.6545842 14.3165803 58.3639592 17.994335 58.3639592 19.1105564 54.8217698"></polygon>
                </g>
            </g>
        </g>
    </g>
</svg>