<?xml version="1.0" encoding="UTF-8"?>
<svg width="20px" height="20px" viewBox="0 0 20 20" version="1.1" xmlns="http://www.w3.org/2000/svg" xmlns:xlink="http://www.w3.org/1999/xlink">
    <!-- Generator: Sketch 43.2 (39069) - http://www.bohemiancoding.com/sketch -->
    <title>phone</title>
    <desc>Created with Sketch.</desc>
    <defs></defs>
    <g id="Symbols" stroke="none" stroke-width="1" fill="none" fill-rule="evenodd" opacity="0.3">
        <g id="footer" transform="translate(-1229.000000, -30.000000)" fill="#23231E">
            <g id="Group-2" transform="translate(989.000000, 30.000000)">
                <path d="M252.037254,0 L248.496254,0 C243.812254,0 240.186254,3.171 240.007254,7.319 C239.835254,11.323 242.742254,14.676 246.555254,15.225 C247.091254,15.302 247.553254,15.641 247.817254,16.113 L250.000254,20.001 L252.182254,16.114 C252.447254,15.642 252.910254,15.302 253.445254,15.225 C257.259254,14.675 260.165254,11.323 259.993254,7.319 C259.814254,3.171 256.188254,0 252.037254,0 M251.939254,1.996 C255.096254,1.996 257.817254,4.422 257.946254,7.402 C258.071254,10.317 256.017254,12.829 253.136254,13.244 C251.216254,13.521 250.547254,14.915 249.994254,15.915 C249.436254,14.915 248.763254,13.523 246.839254,13.245 C243.957254,12.83 241.879254,10.319 242.005254,7.405 C242.137254,4.324 244.928254,2 248.496254,2 L252.000254,2" id="phone"></path>
            </g>
        </g>
    </g>
</svg>