<?xml version="1.0" encoding="UTF-8"?>
<svg width="57px" height="25px" viewBox="0 0 57 25" version="1.1" xmlns="http://www.w3.org/2000/svg" xmlns:xlink="http://www.w3.org/1999/xlink">
    <!-- Generator: Sketch 43.2 (39069) - http://www.bohemiancoding.com/sketch -->
    <title>seb_logo_m</title>
    <desc>Created with Sketch.</desc>
    <defs></defs>
    <g id="Pages" stroke="none" stroke-width="1" fill="none" fill-rule="evenodd" opacity="0.2">
        <g id="landing-mobile" transform="translate(-30.000000, -6421.000000)" fill="#23231E">
            <g id="lithuania" transform="translate(-37.000000, 4496.000000)">
                <g id="other_offices" transform="translate(67.000000, 1718.000000)">
                    <g id="seb_logo_m" transform="translate(0.000000, 207.000000)">
                        <path d="M15.4117055,6.07271607 C15.4117055,6.07271607 12.6693919,3.40909091 8.00761995,3.40909091 C3.45534726,3.40909091 0.987104051,6.12698456 0.987104051,8.79092894 C0.987104051,10.6938376 2.02927981,12.8680886 5.70394775,13.8468368 C7.07526555,14.1730862 8.33643992,14.4450671 9.76250738,14.7709973 C11.0787535,15.0972467 11.6272162,15.6408892 11.5177169,16.293388 C11.2983962,17.1629608 9.92707839,17.4892101 8.39151164,17.4892101 C7.07526555,17.4892101 5.48462708,17.2172292 3.23602659,15.2057836 L0,17.5980664 C0.932354398,18.6853515 4.00380997,21.0227273 8.50101094,21.0227273 C12.998534,21.0227273 16.3988095,19.0655502 16.3988095,15.3146398 C16.3988095,12.596427 14.4793511,11.4548733 11.7370375,10.6392499 C9.92707839,10.1498758 8.72065367,9.82394561 7.40408553,9.49769622 C6.25241046,9.17144682 5.59444844,8.62780425 5.7586974,7.86676849 C5.92359048,7.16000122 6.96544418,6.83375183 8.00761995,6.83375183 C9.04947365,6.83375183 10.9141824,7.10573273 12.3402499,8.35614258 L15.4117055,6.07271607 Z" id="Fill-1"></path>
                        <polygon id="Fill-3" points="34.2792281 3.97727273 34.2792281 7.88120876 25.642979 7.88120876 25.642979 10.5756382 31.758091 10.5756382 31.758091 14.3694723 25.642979 14.3694723 25.642979 17.1187912 34.4940476 17.1187912 34.4940476 21.0227273 20.922619 21.0227273 20.922619 3.97727273"></polygon>
                        <polygon id="Fill-5" points="17.5297619 25 18.6607143 25 18.6607143 0 17.5297619 0"></polygon>
                        <polygon id="Fill-7" points="36.7559524 25 37.8869048 25 37.8869048 0 36.7559524 0"></polygon>
                        <path d="M49.710375,17.2286421 C50.5440579,17.2286421 51.2667571,16.5686889 51.2667571,15.688859 C51.2667571,14.8093519 50.5440579,14.1497216 49.710375,14.1497216 L44.9850841,14.1497216 L44.9850841,17.2286421 L49.710375,17.2286421 Z M44.9850841,7.55115821 L44.9850841,10.5206247 L48.8763658,10.5206247 C49.7658669,10.5206247 50.4885661,9.80578305 50.4885661,9.03573003 C50.4885661,8.21111141 49.7658669,7.55115821 48.8763658,7.55115821 L44.9850841,7.55115821 Z M40.1488095,21.0227273 L40.1488095,3.97727273 L50.265946,3.97727273 C53.1570694,3.97727273 55.5471343,5.68204419 55.5471343,8.32121123 C55.5471343,10.4105249 54.2130459,11.6203315 53.0457593,12.060085 C53.0457593,12.060085 52.9899411,12.1152964 52.8789575,12.1152964 L53.0457593,12.1152964 C55.102547,12.7749267 56.547619,14.20461 56.547619,16.458912 C56.547619,19.2630673 54.1575541,21.0227273 51.2112653,21.0227273 L40.1488095,21.0227273 Z" id="Fill-8"></path>
                    </g>
                </g>
            </g>
        </g>
    </g>
</svg>