<?xml version="1.0" encoding="UTF-8"?>
<svg width="95px" height="42px" viewBox="0 0 95 42" version="1.1" xmlns="http://www.w3.org/2000/svg" xmlns:xlink="http://www.w3.org/1999/xlink">
    <!-- Generator: Sketch 43.2 (39069) - http://www.bohemiancoding.com/sketch -->
    <title>seb_logo@3x</title>
    <desc>Created with Sketch.</desc>
    <defs></defs>
    <g id="Pages" stroke="none" stroke-width="1" fill="none" fill-rule="evenodd" opacity="0.2">
        <g id="landing" transform="translate(-456.000000, -6237.000000)" fill="#23231E">
            <g id="lithuania" transform="translate(198.000000, 5142.000000)">
                <g id="other_offices" transform="translate(0.000000, 775.000000)">
                    <g id="seb_logo" transform="translate(258.000000, 320.000000)">
                        <path d="M25.8916652,10.202163 C25.8916652,10.202163 21.2845784,5.72727273 13.4528015,5.72727273 C5.80498341,5.72727273 1.65833481,10.2933341 1.65833481,14.7687606 C1.65833481,17.9656471 3.40919009,21.6183889 9.58263222,23.2626859 C11.8864461,23.8107848 14.0052191,24.2677127 16.4010124,24.8152754 C18.6123058,25.3633744 19.5337232,26.2766939 19.3497643,27.3728919 C18.9813056,28.8337741 16.6774917,29.381873 14.0977395,29.381873 C11.8864461,29.381873 9.21417349,28.9249451 5.43652468,25.5457165 L0,29.5647515 C1.56635539,31.3913905 6.72640075,35.3181818 14.2816984,35.3181818 C21.8375371,35.3181818 27.55,32.0301243 27.55,25.7285949 C27.55,21.1619973 24.3253098,19.2441872 19.7182231,17.8739398 C16.6774917,17.0517913 14.6506982,16.5042286 12.4388637,15.9561296 C10.5040496,15.4080307 9.39867338,14.4947111 9.67461164,13.2161711 C9.951632,12.028802 11.7019462,11.4807031 13.4528015,11.4807031 C15.2031157,11.4807031 18.3358265,11.937631 20.7316198,14.0383195 L25.8916652,10.202163 Z" id="Fill-1"></path>
                        <polygon id="Fill-3" points="57.5891032 6.68181818 57.5891032 13.2404307 43.0802047 13.2404307 43.0802047 17.7670721 53.3535928 17.7670721 53.3535928 24.1407135 43.0802047 24.1407135 43.0802047 28.7595693 57.95 28.7595693 57.95 35.3181818 35.15 35.3181818 35.15 6.68181818"></polygon>
                        <polygon id="Fill-5" points="29.45 42 31.35 42 31.35 0 29.45 0"></polygon>
                        <polygon id="Fill-7" points="61.75 42 63.65 42 63.65 0 61.75 0"></polygon>
                        <path d="M83.5134301,28.9441188 C84.9140173,28.9441188 86.128152,27.8353974 86.128152,26.3572831 C86.128152,24.8797112 84.9140173,23.7715322 83.5134301,23.7715322 L75.5749413,23.7715322 L75.5749413,28.9441188 L83.5134301,28.9441188 Z M75.5749413,12.6859458 L75.5749413,17.6746495 L82.1122945,17.6746495 C83.6066563,17.6746495 84.820791,16.4737155 84.820791,15.1800264 C84.820791,13.7946672 83.6066563,12.6859458 82.1122945,12.6859458 L75.5749413,12.6859458 Z M67.45,35.3181818 L67.45,6.68181818 L84.4467893,6.68181818 C89.3038765,6.68181818 93.3191857,9.54583424 93.3191857,13.9796349 C93.3191857,17.4896818 91.0779171,19.5221569 89.1168757,20.2609428 C89.1168757,20.2609428 89.023101,20.3536979 88.8366486,20.3536979 L89.1168757,20.3536979 C92.572279,21.4618768 95,23.8637448 95,27.6509722 C95,32.3619531 90.9846909,35.3181818 86.0349258,35.3181818 L67.45,35.3181818 Z" id="Fill-8"></path>
                    </g>
                </g>
            </g>
        </g>
    </g>
</svg>