<?xml version="1.0" encoding="UTF-8"?>
<svg width="105px" height="127px" viewBox="0 0 105 127" version="1.1" xmlns="http://www.w3.org/2000/svg" xmlns:xlink="http://www.w3.org/1999/xlink">
    <!-- Generator: Sketch 43.2 (39069) - http://www.bohemiancoding.com/sketch -->
    <title>swedbank_dots</title>
    <desc>Created with Sketch.</desc>
    <defs></defs>
    <g id="Pages" stroke="none" stroke-width="1" fill="none" fill-rule="evenodd">
        <g id="landing-3" transform="translate(-883.000000, -6090.000000)" fill="#FE6D4B">
            <g id="swedbank_dots" transform="translate(883.000000, 6090.000000)">
                <circle id="Oval" cx="3" cy="3" r="3"></circle>
                <circle id="Oval" cx="14" cy="3" r="3"></circle>
                <circle id="Oval" cx="25" cy="3" r="3"></circle>
                <circle id="Oval" cx="36" cy="3" r="3"></circle>
                <circle id="Oval" cx="47" cy="3" r="3"></circle>
                <circle id="Oval" cx="58" cy="3" r="3"></circle>
                <circle id="Oval" cx="69" cy="3" r="3"></circle>
                <circle id="Oval" cx="80" cy="3" r="3"></circle>
                <circle id="Oval" cx="91" cy="3" r="3"></circle>
                <circle id="Oval" cx="102" cy="3" r="3"></circle>
                <circle id="Oval" cx="3" cy="69" r="3"></circle>
                <circle id="Oval" cx="14" cy="69" r="3"></circle>
                <circle id="Oval" cx="25" cy="69" r="3"></circle>
                <circle id="Oval" cx="36" cy="69" r="3"></circle>
                <circle id="Oval" cx="47" cy="69" r="3"></circle>
                <circle id="Oval" cx="58" cy="69" r="3"></circle>
                <circle id="Oval" cx="69" cy="69" r="3"></circle>
                <circle id="Oval" cx="80" cy="69" r="3"></circle>
                <circle id="Oval" cx="91" cy="69" r="3"></circle>
                <circle id="Oval" cx="102" cy="69" r="3"></circle>
                <circle id="Oval" cx="3" cy="14" r="3"></circle>
                <circle id="Oval" cx="14" cy="14" r="3"></circle>
                <circle id="Oval" cx="25" cy="14" r="3"></circle>
                <circle id="Oval" cx="36" cy="14" r="3"></circle>
                <circle id="Oval" cx="47" cy="14" r="3"></circle>
                <circle id="Oval" cx="58" cy="14" r="3"></circle>
                <circle id="Oval" cx="69" cy="14" r="3"></circle>
                <circle id="Oval" cx="80" cy="14" r="3"></circle>
                <circle id="Oval" cx="91" cy="14" r="3"></circle>
                <circle id="Oval" cx="102" cy="14" r="3"></circle>
                <circle id="Oval" cx="3" cy="80" r="3"></circle>
                <circle id="Oval" cx="14" cy="80" r="3"></circle>
                <circle id="Oval" cx="25" cy="80" r="3"></circle>
                <circle id="Oval" cx="36" cy="80" r="3"></circle>
                <circle id="Oval" cx="47" cy="80" r="3"></circle>
                <circle id="Oval" cx="58" cy="80" r="3"></circle>
                <circle id="Oval" cx="69" cy="80" r="3"></circle>
                <circle id="Oval" cx="80" cy="80" r="3"></circle>
                <circle id="Oval" cx="91" cy="80" r="3"></circle>
                <circle id="Oval" cx="102" cy="80" r="3"></circle>
                <circle id="Oval" cx="3" cy="25" r="3"></circle>
                <circle id="Oval" cx="14" cy="25" r="3"></circle>
                <circle id="Oval" cx="25" cy="25" r="3"></circle>
                <circle id="Oval" cx="36" cy="25" r="3"></circle>
                <circle id="Oval" cx="47" cy="25" r="3"></circle>
                <circle id="Oval" cx="58" cy="25" r="3"></circle>
                <circle id="Oval" cx="69" cy="25" r="3"></circle>
                <circle id="Oval" cx="80" cy="25" r="3"></circle>
                <circle id="Oval" cx="91" cy="25" r="3"></circle>
                <circle id="Oval" cx="102" cy="25" r="3"></circle>
                <circle id="Oval" cx="3" cy="91" r="3"></circle>
                <circle id="Oval" cx="14" cy="91" r="3"></circle>
                <circle id="Oval" cx="25" cy="91" r="3"></circle>
                <circle id="Oval" cx="36" cy="91" r="3"></circle>
                <circle id="Oval" cx="47" cy="91" r="3"></circle>
                <circle id="Oval" cx="58" cy="91" r="3"></circle>
                <circle id="Oval" cx="69" cy="91" r="3"></circle>
                <circle id="Oval" cx="80" cy="91" r="3"></circle>
                <circle id="Oval" cx="91" cy="91" r="3"></circle>
                <circle id="Oval" cx="102" cy="91" r="3"></circle>
                <circle id="Oval" cx="3" cy="36" r="3"></circle>
                <circle id="Oval" cx="14" cy="36" r="3"></circle>
                <circle id="Oval" cx="25" cy="36" r="3"></circle>
                <circle id="Oval" cx="36" cy="36" r="3"></circle>
                <circle id="Oval" cx="47" cy="36" r="3"></circle>
                <circle id="Oval" cx="58" cy="36" r="3"></circle>
                <circle id="Oval" cx="69" cy="36" r="3"></circle>
                <circle id="Oval" cx="80" cy="36" r="3"></circle>
                <circle id="Oval" cx="91" cy="36" r="3"></circle>
                <circle id="Oval" cx="102" cy="36" r="3"></circle>
                <circle id="Oval" cx="3" cy="102" r="3"></circle>
                <circle id="Oval" cx="14" cy="102" r="3"></circle>
                <circle id="Oval" cx="25" cy="102" r="3"></circle>
                <circle id="Oval" cx="36" cy="102" r="3"></circle>
                <circle id="Oval" cx="47" cy="102" r="3"></circle>
                <circle id="Oval" cx="58" cy="102" r="3"></circle>
                <circle id="Oval" cx="69" cy="102" r="3"></circle>
                <circle id="Oval" cx="80" cy="102" r="3"></circle>
                <circle id="Oval" cx="91" cy="102" r="3"></circle>
                <circle id="Oval" cx="102" cy="102" r="3"></circle>
                <circle id="Oval" cx="3" cy="47" r="3"></circle>
                <circle id="Oval" cx="14" cy="47" r="3"></circle>
                <circle id="Oval" cx="25" cy="47" r="3"></circle>
                <circle id="Oval" cx="36" cy="47" r="3"></circle>
                <circle id="Oval" cx="47" cy="47" r="3"></circle>
                <circle id="Oval" cx="58" cy="47" r="3"></circle>
                <circle id="Oval" cx="69" cy="47" r="3"></circle>
                <circle id="Oval" cx="80" cy="47" r="3"></circle>
                <circle id="Oval" cx="91" cy="47" r="3"></circle>
                <circle id="Oval" cx="102" cy="47" r="3"></circle>
                <circle id="Oval" cx="3" cy="113" r="3"></circle>
                <circle id="Oval" cx="14" cy="113" r="3"></circle>
                <circle id="Oval" cx="25" cy="113" r="3"></circle>
                <circle id="Oval" cx="36" cy="113" r="3"></circle>
                <circle id="Oval" cx="47" cy="113" r="3"></circle>
                <circle id="Oval" cx="58" cy="113" r="3"></circle>
                <circle id="Oval" cx="69" cy="113" r="3"></circle>
                <circle id="Oval" cx="80" cy="113" r="3"></circle>
                <circle id="Oval" cx="91" cy="113" r="3"></circle>
                <circle id="Oval" cx="102" cy="113" r="3"></circle>
                <circle id="Oval" cx="3" cy="58" r="3"></circle>
                <circle id="Oval" cx="14" cy="58" r="3"></circle>
                <circle id="Oval" cx="25" cy="58" r="3"></circle>
                <circle id="Oval" cx="36" cy="58" r="3"></circle>
                <circle id="Oval" cx="47" cy="58" r="3"></circle>
                <circle id="Oval" cx="58" cy="58" r="3"></circle>
                <circle id="Oval" cx="69" cy="58" r="3"></circle>
                <circle id="Oval" cx="80" cy="58" r="3"></circle>
                <circle id="Oval" cx="91" cy="58" r="3"></circle>
                <circle id="Oval" cx="102" cy="58" r="3"></circle>
                <circle id="Oval" cx="3" cy="124" r="3"></circle>
                <circle id="Oval" cx="14" cy="124" r="3"></circle>
                <circle id="Oval" cx="25" cy="124" r="3"></circle>
                <circle id="Oval" cx="36" cy="124" r="3"></circle>
                <circle id="Oval" cx="47" cy="124" r="3"></circle>
                <circle id="Oval" cx="58" cy="124" r="3"></circle>
                <circle id="Oval" cx="69" cy="124" r="3"></circle>
                <circle id="Oval" cx="80" cy="124" r="3"></circle>
                <circle id="Oval" cx="91" cy="124" r="3"></circle>
                <circle id="Oval" cx="102" cy="124" r="3"></circle>
            </g>
        </g>
    </g>
</svg>