<?xml version="1.0" encoding="UTF-8"?>
<svg width="116px" height="50px" viewBox="0 0 116 50" version="1.1" xmlns="http://www.w3.org/2000/svg" xmlns:xlink="http://www.w3.org/1999/xlink">
    <!-- Generator: Sketch 43.2 (39069) - http://www.bohemiancoding.com/sketch -->
    <title>swedbank_dots_m</title>
    <desc>Created with Sketch.</desc>
    <defs></defs>
    <g id="Pages" stroke="none" stroke-width="1" fill="none" fill-rule="evenodd">
        <g id="landing-mobile" transform="translate(-174.000000, -6626.000000)" fill="#FE6D4B">
            <g id="swedbank_dots_m" transform="translate(232.000000, 6651.000000) rotate(-270.000000) translate(-232.000000, -6651.000000) translate(207.000000, 6593.000000)">
                <circle id="Oval" cx="3" cy="3" r="3"></circle>
                <circle id="Oval" cx="14" cy="3" r="3"></circle>
                <circle id="Oval" cx="25" cy="3" r="3"></circle>
                <circle id="Oval" cx="36" cy="3" r="3"></circle>
                <circle id="Oval" cx="47" cy="3" r="3"></circle>
                <circle id="Oval" cx="3" cy="69" r="3"></circle>
                <circle id="Oval" cx="14" cy="69" r="3"></circle>
                <circle id="Oval" cx="25" cy="69" r="3"></circle>
                <circle id="Oval" cx="36" cy="69" r="3"></circle>
                <circle id="Oval" cx="47" cy="69" r="3"></circle>
                <circle id="Oval" cx="3" cy="14" r="3"></circle>
                <circle id="Oval" cx="14" cy="14" r="3"></circle>
                <circle id="Oval" cx="25" cy="14" r="3"></circle>
                <circle id="Oval" cx="36" cy="14" r="3"></circle>
                <circle id="Oval" cx="47" cy="14" r="3"></circle>
                <circle id="Oval" cx="3" cy="80" r="3"></circle>
                <circle id="Oval" cx="14" cy="80" r="3"></circle>
                <circle id="Oval" cx="25" cy="80" r="3"></circle>
                <circle id="Oval" cx="36" cy="80" r="3"></circle>
                <circle id="Oval" cx="47" cy="80" r="3"></circle>
                <circle id="Oval" cx="3" cy="25" r="3"></circle>
                <circle id="Oval" cx="14" cy="25" r="3"></circle>
                <circle id="Oval" cx="25" cy="25" r="3"></circle>
                <circle id="Oval" cx="36" cy="25" r="3"></circle>
                <circle id="Oval" cx="47" cy="25" r="3"></circle>
                <circle id="Oval" cx="3" cy="91" r="3"></circle>
                <circle id="Oval" cx="14" cy="91" r="3"></circle>
                <circle id="Oval" cx="25" cy="91" r="3"></circle>
                <circle id="Oval" cx="36" cy="91" r="3"></circle>
                <circle id="Oval" cx="47" cy="91" r="3"></circle>
                <circle id="Oval" cx="3" cy="36" r="3"></circle>
                <circle id="Oval" cx="14" cy="36" r="3"></circle>
                <circle id="Oval" cx="25" cy="36" r="3"></circle>
                <circle id="Oval" cx="36" cy="36" r="3"></circle>
                <circle id="Oval" cx="47" cy="36" r="3"></circle>
                <circle id="Oval" cx="3" cy="102" r="3"></circle>
                <circle id="Oval" cx="14" cy="102" r="3"></circle>
                <circle id="Oval" cx="25" cy="102" r="3"></circle>
                <circle id="Oval" cx="36" cy="102" r="3"></circle>
                <circle id="Oval" cx="47" cy="102" r="3"></circle>
                <circle id="Oval" cx="3" cy="47" r="3"></circle>
                <circle id="Oval" cx="14" cy="47" r="3"></circle>
                <circle id="Oval" cx="25" cy="47" r="3"></circle>
                <circle id="Oval" cx="36" cy="47" r="3"></circle>
                <circle id="Oval" cx="47" cy="47" r="3"></circle>
                <circle id="Oval" cx="3" cy="113" r="3"></circle>
                <circle id="Oval" cx="14" cy="113" r="3"></circle>
                <circle id="Oval" cx="25" cy="113" r="3"></circle>
                <circle id="Oval" cx="36" cy="113" r="3"></circle>
                <circle id="Oval" cx="47" cy="113" r="3"></circle>
                <circle id="Oval" cx="3" cy="58" r="3"></circle>
                <circle id="Oval" cx="14" cy="58" r="3"></circle>
                <circle id="Oval" cx="25" cy="58" r="3"></circle>
                <circle id="Oval" cx="36" cy="58" r="3"></circle>
                <circle id="Oval" cx="47" cy="58" r="3"></circle>
            </g>
        </g>
    </g>
</svg>