<?xml version="1.0" encoding="UTF-8"?>
<svg width="125px" height="49px" viewBox="0 0 125 49" version="1.1" xmlns="http://www.w3.org/2000/svg" xmlns:xlink="http://www.w3.org/1999/xlink">
    <!-- Generator: Sketch 43.2 (39069) - http://www.bohemiancoding.com/sketch -->
    <title>telia</title>
    <desc>Created with Sketch.</desc>
    <defs></defs>
    <g id="Pages" stroke="none" stroke-width="1" fill="none" fill-rule="evenodd" opacity="0.2">
        <g id="landing-3" transform="translate(-479.000000, -4693.000000)" fill="#23231E">
            <g id="logos" transform="translate(182.000000, 4685.000000)">
                <g id="telia" transform="translate(297.000000, 8.000000)">
                    <path d="M56.9091128,18.3557095 C56.277751,18.3557095 55.6477648,17.8822147 55.0184663,16.9384919 C54.6054677,16.2837832 54.4005158,15.786734 54.4005158,15.4475165 C54.4005158,14.8639867 54.7813618,14.3260182 55.5456327,13.8289691 C56.3093879,13.3320919 57.1388239,13.0834814 58.0368638,13.0834814 L72.9108322,13.0834814 C73.8559835,13.0834814 74.3293329,13.5201832 74.3293329,14.3918674 C74.3293329,15.3871691 74.0628267,16.2958182 73.5287827,17.1198779 C72.9949106,17.9432498 72.4139271,18.3557095 71.7839409,18.3557095 L66.9467675,18.3557095 L66.9467675,34.7934042 C66.9467675,35.7875025 66.6794017,36.697527 66.1469051,37.5202112 C65.6135488,38.3461621 65.0305021,38.757934 64.4012036,38.757934 C63.7698418,38.757934 63.1398556,38.2858147 62.5100413,37.3388253 C62.0975585,36.6841165 61.8920908,36.1877551 61.8920908,35.8478498 L61.8920908,18.3557095 L56.9091128,18.3557095 Z" id="Fill-1"></path>
                    <path d="M80.0035763,23.8111288 C78.8383425,23.8111288 77.8441884,24.1448446 77.0207703,24.8103849 C76.1966644,25.4779884 75.6875516,26.3685849 75.4936039,27.4833779 L84.0764787,27.4833779 C84.0267882,26.441827 83.6151651,25.5687674 82.8392022,24.8655744 C82.0634113,24.1616937 81.1177442,23.8111288 80.0035763,23.8111288 L80.0035763,23.8111288 Z M75.4936039,31.1564867 C75.76011,32.2967253 76.3410935,33.2115639 77.2391334,33.9032375 C78.1357978,34.5937077 79.2143741,34.9385989 80.4750344,34.9385989 C81.5429505,34.9385989 82.8144429,34.5747954 84.2934663,33.84822 C84.9731431,33.507627 85.6031293,33.3391358 86.1854883,33.3391358 C86.9612792,33.3391358 87.3495186,33.6903884 87.3495186,34.3935814 C87.3495186,35.0252516 87.2097318,35.6295849 86.9310179,36.2112235 C86.652304,36.7949253 86.2950138,37.2180446 85.8584594,37.4838481 C85.0343535,37.99362 84.1175722,38.3885428 83.112586,38.6658656 C82.1058803,38.9440481 81.1063961,39.0850305 80.112414,39.0850305 C78.3661967,39.0850305 76.7709422,38.6235709 75.3302613,37.7021989 C73.8861417,36.7813428 72.765784,35.59262 71.9652338,34.1382656 C71.1660591,32.6842551 70.7650963,31.1329323 70.7650963,29.4841253 C70.7650963,27.6412095 71.2016506,25.9750375 72.0747593,24.4840621 C72.947868,22.9930867 74.0862792,21.8413288 75.4936039,21.0286165 C76.8985213,20.2167639 78.4385832,19.809806 80.112414,19.809806 C81.7363824,19.809806 83.1971802,20.1925218 84.4936039,20.9555463 C85.7912311,21.7204621 86.7907153,22.7319253 87.4951513,23.9937182 C88.197696,25.2531042 88.5496561,26.6352481 88.5496561,28.1375709 C88.5496561,28.914006 88.3488308,29.6116972 87.9492435,30.229613 C87.5496561,30.8475288 87.1063961,31.1564867 86.6220426,31.1564867 L75.4936039,31.1564867 Z" id="Fill-3"></path>
                    <path d="M95.2768054,38.757934 C94.1853336,38.757934 93.2396664,38.326734 92.4404917,37.4663972 C91.6399415,36.6067481 91.2401823,35.592706 91.2401823,34.4304604 L91.2401823,15.1191305 C91.2401823,14.5866639 91.6096802,14.0775796 92.3498796,13.5913621 C93.0885316,13.1070358 93.8825481,12.8653025 94.7307256,12.8653025 C95.6287655,12.8653025 96.0773556,13.2769025 96.0773556,14.1009621 L96.0773556,32.865727 C96.0773556,33.1812182 96.1432084,33.4432393 96.2774931,33.6480077 C96.4098865,33.8536358 96.6469911,34.02952 96.9860557,34.1753165 C97.3736073,34.3451832 97.5684147,34.6844007 97.5684147,35.1931411 C97.5684147,36.0902709 97.3252923,36.9090007 96.8411107,37.6477832 C96.3548659,38.3886288 95.8342331,38.757934 95.2768054,38.757934" id="Fill-5"></path>
                    <path d="M102.622524,38.757934 C102.065096,38.757934 101.459182,38.2964744 100.804436,37.3757902 C100.416197,36.7451516 100.222765,36.2730323 100.222765,35.9573691 L100.222765,22.392106 C100.222765,21.8601551 100.592091,21.3510709 101.331602,20.8648533 C102.071802,20.380527 102.864271,20.1387937 103.713996,20.1387937 C104.61066,20.1387937 105.05925,20.5505656 105.05925,21.3746253 L105.05925,34.938513 C105.05925,35.592706 104.931671,36.2240323 104.677717,36.8304288 C104.422558,37.4361375 104.108253,37.9096323 103.732737,38.2488498 C103.356706,38.5880674 102.987208,38.757934 102.622524,38.757934 M102.622524,17.8103481 C101.992538,17.8103481 101.33762,17.3146744 100.659319,16.3193726 C100.197834,15.6161796 99.9681224,15.071506 99.9681224,14.6826007 C99.9681224,14.0775796 100.380605,13.5066007 101.204023,12.9734463 C102.028129,12.4408077 102.914649,12.1734568 103.860316,12.1734568 C104.877854,12.1734568 105.387655,12.6342288 105.387655,13.5557726 C105.387655,14.2823481 105.247352,14.9808989 104.968638,15.6457516 C104.689752,16.3138709 104.33848,16.8411796 103.914133,17.2280218 C103.488927,17.616927 103.059078,17.8103481 102.622524,17.8103481" id="Fill-7"></path>
                    <path d="M117.096664,34.2478021 C118.188136,34.2478021 119.206878,33.944174 120.152545,33.339153 L120.152545,25.0837705 C119.254677,24.5746863 118.248487,24.3195425 117.133631,24.3195425 C115.751926,24.3195425 114.593226,24.7863319 113.661142,25.7197389 C112.72751,26.6533179 112.260695,27.8239881 112.260695,29.2289986 C112.260695,30.6359004 112.72751,31.8246232 113.661142,32.7924161 C114.593226,33.76296 115.738514,34.2478021 117.096664,34.2478021 M116.770667,38.7578653 C115.02445,38.7578653 113.441403,38.3213354 112.024278,37.4482758 C110.605089,36.5752161 109.50227,35.4301635 108.714443,34.0107109 C107.926444,32.5936653 107.532187,31.0476723 107.532187,29.3753109 C107.532187,27.5801916 107.980777,25.9447951 108.877613,24.4658547 C109.774278,22.9863986 110.938996,21.841346 112.37022,21.0286337 C113.800069,20.2167811 115.338755,19.8096512 116.987827,19.8096512 C118.394979,19.8096512 119.764477,20.1992442 121.098212,20.9749916 C121.945873,20.4175951 122.794223,20.1388968 123.643776,20.1388968 C124.54044,20.1388968 124.988343,20.5504968 124.988343,21.3745565 L124.988343,34.9386161 C124.988343,35.5926372 124.862139,36.2239635 124.607669,36.83036 C124.352338,37.4362407 124.038033,37.9097354 123.662001,38.2487811 C123.285798,38.5879986 122.916472,38.7578653 122.552304,38.7578653 C121.994876,38.7578653 121.388446,38.2965775 120.734904,37.3757214 C120.491781,36.9881916 120.321905,36.6477705 120.225103,36.3582407 C120.030296,36.8908793 119.769807,37.3523389 119.442779,37.7391811 C119.116265,38.1279144 118.771011,38.3818547 118.406327,38.5027214 C117.897902,38.6719004 117.351823,38.7578653 116.770667,38.7578653" id="Fill-9"></path>
                    <path d="M32.1133081,36.4321877 C38.4320839,32.7649246 42.9523728,28.1664895 45.0378267,23.265114 C45.8954608,19.7391772 46.3858322,15.9412474 46.3858322,11.9351105 C46.3858322,11.3763386 46.3590096,10.8404333 46.3086314,10.326707 C45.9405089,16.2534719 38.2790578,23.7057702 28.1452889,28.5748228 C15.9198762,34.4479456 6.74724897,36.0291842 2.65491747,31.5493807 C4.07685695,34.3566509 5.9795392,37.1883351 8.14442916,39.7298018 C13.1776135,44.2046193 21.4764443,42.6015456 32.1133081,36.4321877" id="Fill-11"></path>
                    <path d="M26.718707,24.376606 C38.2508597,18.8131288 46.2830124,10.9009182 44.8813618,5.65551123 C42.582359,1.68307263 37.9298487,0.171809474 32.9408528,0.171809474 C18.1499312,0.171809474 0,9.91902702 0,22.3550551 C0,23.9534867 0.351272352,25.7400095 0.984697387,27.6137007 C4.35763411,32.0885182 14.6693604,30.1859428 26.718707,24.376606" id="Fill-13"></path>
                    <path d="M25.7448418,42.0031095 L25.7448418,42.0031095 C17.6360041,45.2905796 12.9936382,44.2428393 10.4279574,42.1918884 L10.3909904,42.1630042 C14.3617607,46.1234077 18.8873796,48.9078112 22.8567744,48.9078112 C29.8075997,48.9078112 39.3234182,40.4751691 43.8254814,27.4021411 C41.2866231,32.123506 35.8430193,37.9218393 25.7448418,42.0031095" id="Fill-16"></path>
                </g>
            </g>
        </g>
    </g>
</svg>