<?xml version="1.0" encoding="UTF-8"?>
<svg width="107px" height="51px" viewBox="0 0 107 51" version="1.1" xmlns="http://www.w3.org/2000/svg" xmlns:xlink="http://www.w3.org/1999/xlink">
    <!-- Generator: Sketch 43.2 (39069) - http://www.bohemiancoding.com/sketch -->
    <title>viber</title>
    <desc>Created with Sketch.</desc>
    <defs></defs>
    <g id="Pages" stroke="none" stroke-width="1" fill="none" fill-rule="evenodd" opacity="0.2">
        <g id="landing-3" transform="translate(-948.000000, -4697.000000)" fill="#23231E">
            <g id="logos" transform="translate(182.000000, 4685.000000)">
                <g id="viber" transform="translate(766.000000, 12.000000)">
                    <path d="M94.5972807,20.0180119 C91.1740502,20.8590049 90.6730782,23.2138372 91.0070738,26.2406113 C91.090562,27.3347506 91.090562,28.4280717 90.9235428,29.4372548 C90.7565664,30.6987659 90.0043175,31.4548458 88.7519088,31.371569 C87.5838433,31.2866558 86.998528,30.4456197 86.9150398,29.2690648 C86.916707,27.5870786 86.916707,25.7368594 86.916707,23.8866402 L86.916707,18.8405957 C86.916707,17.9155077 87.2507026,17.2427046 88.0856275,16.8221865 C89.0040406,16.4017115 89.9224965,16.4858065 90.506914,17.2427046 C91.007886,17.9996027 91.2575384,17.6631796 91.6750223,17.2427046 C92.2594398,16.7380915 93.0117314,16.4858065 93.8466563,16.5699015 C94.7651121,16.7380915 95.3495724,17.2427046 95.5165488,18.1677927 C95.682713,19.0929238 95.3495724,19.8498219 94.5972807,20.0180119 L94.5972807,20.0180119 Z M83.2430119,25.4004364 L80.2372224,25.4004364 L76.6470155,25.4004364 C75.7285596,25.4004364 75.6450714,25.8209544 76.0625552,26.4937575 C76.8139919,27.9234586 78.9848137,28.5121667 80.8216827,27.8393636 C81.4896311,27.5870786 82.0740914,27.2506556 82.7420398,26.9142756 C83.6613079,26.4088013 84.4962328,26.4937575 85.080693,27.4188456 C85.7486415,28.4280717 85.3311577,29.2690648 84.4962328,29.8577728 C81.8236267,31.707992 78.9013255,32.2967001 75.8955788,31.035189 C72.9732775,29.7736778 71.7208688,27.2506556 71.7208688,24.1389252 C71.6373806,20.1021069 74.3926627,16.9062815 77.9829124,16.4858065 C81.6557953,16.1493835 84.9128616,18.6724057 85.5808101,22.4569391 C85.9982939,24.5594433 85.4138337,25.3163414 83.2430119,25.4004364 L83.2430119,25.4004364 Z M69.8005544,28.6803567 C68.0471737,31.707992 64.7074314,32.6330801 61.7024969,30.7828609 C61.2007126,30.4464809 61.0336934,30.2782909 60.6162524,30.866999 C60.0317921,31.707992 59.113379,31.792087 58.1949232,31.371569 C57.2756551,30.951094 57.0260027,30.1100578 57.0260027,29.1008748 L57.0260027,21.531808 L57.0260027,14.3833023 C57.0260027,12.9536012 57.5278297,11.7761851 59.113379,11.7761851 C60.6162524,11.7761851 61.0336934,12.8694631 61.0336934,14.2992073 L61.0336934,15.2242954 C61.0336934,17.4108946 61.0336934,17.4108946 63.0375388,16.8221865 C65.7928636,15.9811935 68.4646575,17.0745146 69.8005544,19.5974938 C71.386916,22.6251291 71.5547474,25.6527644 69.8005544,28.6803567 L69.8005544,28.6803567 Z M53.5192839,16.2334785 C52.2668752,16.3175735 51.2649739,15.3083904 51.2649739,14.0468793 C51.2649739,12.7853681 52.3503634,11.6920901 53.5192839,11.7761851 C54.6882044,11.9443751 55.4396411,12.7012731 55.6066175,14.0468793 C55.4404961,15.3083904 54.8560358,16.1493835 53.5192839,16.2334785 L53.5192839,16.2334785 Z M55.2726647,29.3531598 C55.2726647,30.6996271 54.6047162,31.5406201 53.2688193,31.5406201 C51.9329224,31.455664 51.3484621,30.6146709 51.3484621,29.2699259 L51.3484621,24.5594433 L51.3484621,19.7657269 C51.3484621,18.4201207 51.9329224,17.5790846 53.3523075,17.5790846 C54.6882044,17.5790846 55.2726647,18.4201207 55.2726647,19.6816319 L55.2726647,29.3531598 Z M49.929077,14.8037773 C48.5931801,18.3359827 47.1737949,21.868231 45.837898,25.4845744 C45.2534378,26.9983706 44.6689775,28.5121667 44.0845173,29.9418678 C43.7505217,30.7828609 43.1661042,31.455664 42.1641601,31.539802 C40.9952396,31.539802 40.4107793,30.8661378 40.0768265,29.8577728 C38.1564693,24.8958233 36.1526239,19.8498219 34.2322668,14.8878723 C33.7312947,13.5422662 33.9818021,12.3648931 35.4846755,11.8602801 C36.9875488,11.355667 37.6554973,12.2807981 38.1564693,13.5422662 C39.3253898,16.9062815 40.5777985,20.2702969 41.9971837,24.2230202 C43.3330806,20.6908149 44.4185129,17.7473177 45.5039024,14.7196823 C45.6708788,14.2150693 45.837898,13.7104993 46.0883626,13.2058862 C46.5893347,12.0284701 47.4242596,11.355667 48.7601565,11.8602801 C50.1795416,12.3648931 50.3465181,13.4581712 49.929077,14.8037773 L49.929077,14.8037773 Z M30.9760127,28.5121667 C30.9731913,28.5202619 30.9697714,28.528357 30.9668217,28.5364953 C30.45559,29.9562497 28.7195652,31.3661435 27.227037,31.3713537 C27.2243011,31.3713537 27.2215652,31.371569 27.2188293,31.371569 C26.9683219,31.2866558 26.634369,31.2866558 26.2168852,31.119284 C19.6208888,28.2598817 14.8617614,23.6343122 12.1899675,16.9062815 C12.0496235,16.5721837 11.9543794,16.244028 11.9013283,15.9249579 C11.5758824,14.1103919 12.537087,12.6729831 14.5278085,12.0284701 C14.9452496,11.8602801 15.3627334,11.8602801 15.7802172,12.0284701 C15.8271553,12.0442298 15.8772568,12.066836 15.9300514,12.0957289 C16.018071,12.1438262 16.1136998,12.2093626 16.2150998,12.2896684 C16.2962368,12.3538699 16.381093,12.4275446 16.4686851,12.5093144 C16.57825,12.6114943 16.6921753,12.7263337 16.8086227,12.851206 C16.8319208,12.8761373 16.8553043,12.9015424 16.8788161,12.9272489 C16.9257969,12.9787479 16.9731197,13.031754 17.020699,13.086095 C17.0444673,13.1132654 17.0682783,13.1407804 17.0921749,13.1685968 C18.1193834,14.3651313 19.2308497,16.1441302 19.286936,16.8221865 L19.286936,16.822531 C19.2924505,16.8726091 19.2948872,16.921137 19.294759,16.9683301 C19.3007865,17.7130424 18.7560398,18.1038064 18.2849919,18.4201207 C17.6907849,18.8191091 17.449041,19.3068859 17.4377126,19.8307465 C17.4372424,20.1755662 17.5363766,20.5462645 17.7004889,20.9430569 C17.7005316,20.9430569 17.7005316,20.9430999 17.7005316,20.9430999 C18.7024757,23.1297422 20.3723255,24.5594433 22.4597018,25.5686694 C22.7414585,25.6947904 23.023258,25.7736322 23.2918481,25.778584 C23.7394697,25.7867653 24.150413,25.5896824 24.4635472,25.0640564 C24.4639747,25.0633244 24.4644877,25.0626354 24.4649579,25.0619465 C25.3831573,23.6343983 26.5514793,23.6348289 27.8032895,24.5594433 L27.8032895,24.5594433 C28.4711952,24.9799183 29.05557,25.4003933 29.6399447,25.9048772 C29.6399875,25.9049203 29.640073,25.9049633 29.6401157,25.9050494 C29.6403722,25.9052217 29.640586,25.9053939 29.6407997,25.9055661 C30.3233255,26.4554346 31.1166131,26.892875 31.1097734,27.8156379 C31.1125093,28.0240023 31.0721117,28.2540687 30.9760127,28.5121667 L30.9760127,28.5121667 Z M26.3003734,19.2611138 C26.3003734,19.5974938 26.3003734,20.0180119 25.7994441,20.1021069 C25.4654485,20.1021069 25.2984721,19.8498219 25.2149839,19.5133988 C25.1314957,18.2518877 24.4635472,17.5790846 23.2111385,17.4108946 C22.8771429,17.3267996 22.4597018,17.2427046 22.6266783,16.7380915 C22.7101665,16.4017115 23.0441193,16.4017115 23.3781149,16.4017115 C24.7975001,16.3175735 26.3003734,17.8314127 26.3003734,19.2611138 L26.3003734,19.2611138 Z M28.1372424,20.7749099 C27.3858057,20.8590049 27.5527821,20.1862019 27.4692939,19.7657269 C26.9683219,16.8221865 25.9664206,15.7289085 22.9606311,15.0561054 C22.5431901,14.9719673 21.8752416,15.0561054 21.9587298,14.3833023 C22.042218,13.7104993 22.7101665,13.9627843 23.1276503,14.0468793 C26.133397,14.3833023 28.5547262,16.9062815 28.5547262,19.7657269 C28.471238,20.1021069 28.7217026,20.6908149 28.1372424,20.7749099 L28.1372424,20.7749099 Z M21.821079,11.6037322 C21.9615085,11.6016653 22.1086922,11.6232812 22.2347154,11.6227214 C22.2860994,11.6223769 22.3333794,11.6184585 22.3744609,11.6083395 C22.3750167,11.6082104 22.3756151,11.6081243 22.3761709,11.6079951 C26.9683219,11.7761851 30.9760127,15.9811935 30.8925245,20.6067199 C30.8925245,21.0271949 31.0595009,21.700041 30.3915524,21.700041 C29.723604,21.700041 29.8906231,21.0271949 29.8906231,20.5226249 C29.854073,20.2177644 29.811025,19.9230659 29.7612656,19.6383141 C29.7114633,19.3535623 29.6549495,19.0787142 29.5915532,18.8135114 C29.5439739,18.61462 29.4924617,18.4211541 29.4370167,18.2329846 C29.400039,18.1075526 29.3613087,17.9844888 29.3207829,17.8637503 C29.2802144,17.7430117 29.2378932,17.6245984 29.1937338,17.5084672 C29.105415,17.2762479 29.0098289,17.0532002 28.906719,16.8390228 C28.8551641,16.7319771 28.8017282,16.6271275 28.7464541,16.5244739 C28.4145105,15.9085953 28.0142544,15.3718169 27.5401713,14.9068185 C27.4216291,14.7905581 27.2985129,14.678819 27.1706515,14.5714288 C26.9149715,14.3566486 26.6404821,14.1594365 26.346542,13.9788024 C26.1505392,13.8583652 25.9459012,13.7452913 25.7323714,13.6393651 C24.7715944,13.1626976 23.6311873,12.8300638 22.2926827,12.6171781 C21.8752416,12.5330831 21.2907813,12.6171781 21.2907813,12.1125651 C21.2907813,11.6736176 21.5435544,11.6025265 21.821079,11.6037322 L21.821079,11.6037322 Z M106.721368,15.9811935 C106.135241,9.25316282 101.794409,4.29125636 95.3662444,2.94565023 C90.0226567,1.8523291 84.5955808,1.09543104 79.1685049,0.843146036 C67.8968692,0.254437972 56.6252336,-0.0819850903 45.3536407,0.0862049111 C34.5829344,0.254437972 23.8122708,0.843146036 13.1250954,2.60922717 C5.77766229,3.8707383 1.51950687,8.07574669 0.350586376,15.4765804 C-0.233873871,19.0929238 0.0166335198,22.6251291 0.350586376,26.2414725 C1.01853484,34.4841605 5.8611505,38.4360227 13.0416072,40.1180088 C15.1289408,40.5385269 17.2997626,40.7908119 19.3871389,40.8749069 C21.1404769,40.8749069 21.4744725,41.631848 21.3909843,43.1456441 C21.3074533,45.0799583 21.3909843,47.0983675 21.3909843,49.0326817 C21.3909843,49.5364336 21.1404769,50.2092366 21.7249372,50.4623828 C22.3093974,50.7146678 22.6433503,50.0418648 22.9773459,49.7054848 C25.1481677,47.3515137 27.2355013,44.9966814 29.3228349,42.6410311 C29.8238069,42.136418 30.3247789,41.715943 31.1597038,41.800038 C39.2585736,42.3046511 47.3574861,42.4728411 54.7875524,42.3887461 C65.4755828,42.4728411 75.4113215,41.884133 85.5140366,41.1263737 C89.8548253,40.7908119 94.1981789,40.2021038 98.2893579,38.4351615 C102.964185,36.3326573 105.803767,32.7171751 106.553537,27.5870786 C107.138852,23.7184502 107.055364,19.8498219 106.721368,15.9811935 L106.721368,15.9811935 Z" id="Fill-1"></path>
                    <path d="M79.9867492,20.1862105 C78.8186837,19.5975024 77.7324392,19.6815974 76.7313501,20.6067285 C76.2295231,21.1112985 75.6450628,21.7000066 75.8963825,22.4569047 C76.1468899,23.1297077 76.8974716,22.7092327 77.4819318,22.7933277 C77.8159274,22.7933277 78.1498803,22.7092327 78.4838759,22.7092327 C78.8178287,22.7092327 79.2353125,22.7933277 79.5692654,22.7092327 C80.2372139,22.6251377 81.2391579,23.1297077 81.4061344,22.3728097 C81.6566417,21.3636266 80.8216741,20.6067285 79.9867492,20.1862105" id="Fill-4"></path>
                    <path d="M64.0394786,20.1021112 C62.2860979,20.0180162 60.950201,21.6159073 60.950201,23.8866445 C60.950201,26.0741049 62.2026097,27.8393679 63.8725022,27.9234629 C65.6258402,28.0916529 66.9617371,26.4096668 66.9617371,24.1389295 C66.9617371,21.8682354 65.7093712,20.1862062 64.0394786,20.1021112" id="Fill-6"></path>
                </g>
            </g>
        </g>
    </g>
</svg>