<?xml version="1.0" encoding="UTF-8"?>
<svg width="24px" height="14px" viewBox="0 0 24 14" version="1.1" xmlns="http://www.w3.org/2000/svg" xmlns:xlink="http://www.w3.org/1999/xlink">
    <!-- Generator: Sketch 43.2 (39069) - http://www.bohemiancoding.com/sketch -->
    <title>vk</title>
    <desc>Created with Sketch.</desc>
    <defs></defs>
    <g id="Symbols" stroke="none" stroke-width="1" fill="none" fill-rule="evenodd" opacity="0.3">
        <g id="footer" transform="translate(-199.000000, -34.000000)" fill="#23231E">
            <g id="Group-16" transform="translate(60.000000, 29.000000)">
                <g id="soc">
                    <path d="M162.436457,5.95970226 C162.541157,5.43812795 162.310569,5.14588466 161.765528,5.14588466 L159.019487,5.14588466 C158.390579,5.14588466 158.159903,5.41712791 157.971337,5.81358062 C157.971337,5.81358062 156.486554,8.96226922 154.680167,10.946378 C154.100166,11.5878019 153.805311,11.7808441 153.485207,11.7808441 C153.227076,11.7808441 153.107898,11.5666261 153.107898,10.9879387 L153.107898,5.91796578 C153.107898,5.20862119 153.02412,4.99993875 152.437146,4.99993875 L148.03497,4.99993875 C147.699505,4.99993875 147.489929,5.19403539 147.489929,5.4588644 C147.489929,6.12691182 148.517068,6.27769038 148.517068,8.08782387 L148.517068,11.8225806 C148.517068,12.5736617 148.475135,12.8658171 148.118748,12.8658171 C147.175475,12.8658171 144.932454,9.63189823 143.674727,5.95970226 C143.423129,5.20862119 143.150608,4.99993875 142.437923,4.99993875 L139.691794,4.99993875 C139.293562,4.99993875 139.000031,5.27109413 139.000031,5.66745897 C139.000031,6.39771573 139.859438,9.77784414 143.234563,14.3055063 C145.498506,17.3517428 148.475135,18.9999388 151.158408,18.9999388 C152.793444,18.9999388 153.191764,18.7288712 153.191764,18.0402631 L153.191764,15.7033712 C153.191764,15.1191482 153.42244,14.8688171 153.757728,14.8688171 C154.135037,14.8688171 154.801022,14.9894576 156.357135,16.5171009 C158.201837,18.2697699 158.327724,18.9999388 159.333941,18.9999388 L162.415446,18.9999388 C162.729811,18.9999388 163.023343,18.853905 163.023343,18.3323307 C163.023343,17.6437225 162.121826,16.4128036 160.738389,14.9522022 C160.172337,14.2011212 159.249986,13.3873914 158.956543,13.0119388 C158.537301,12.5736617 158.6631,12.3232428 158.956543,11.8643171 C158.956543,11.8643171 162.121826,7.42021578 162.436457,5.95970226 Z" id="vk"></path>
                </g>
            </g>
        </g>
    </g>
</svg>