<?xml version="1.0" encoding="UTF-8"?>
<svg width="119px" height="73px" viewBox="0 0 119 73" version="1.1" xmlns="http://www.w3.org/2000/svg" xmlns:xlink="http://www.w3.org/1999/xlink">
    <!-- Generator: Sketch 43.2 (39069) - http://www.bohemiancoding.com/sketch -->
    <title>vodafone</title>
    <desc>Created with Sketch.</desc>
    <defs></defs>
    <g id="Pages" stroke="none" stroke-width="1" fill="none" fill-rule="evenodd" opacity="0.2">
        <g id="landing-3" transform="translate(-717.000000, -4685.000000)" fill="#23231E">
            <g id="logos" transform="translate(182.000000, 4685.000000)">
                <g id="vodafone" transform="translate(535.000000, 0.000000)">
                    <path d="M38.6456931,69.4897157 C36.6176293,69.4897157 34.9718846,67.8392809 34.9718846,65.8048026 C34.9718846,63.7715939 36.6176293,62.1217939 38.6456931,62.1217939 C40.6743899,62.1217939 42.3195016,63.7715939 42.3195016,65.8048026 C42.3195016,67.8392809 40.6743899,69.4897157 38.6456931,69.4897157 L38.6456931,69.4897157 Z M42.1656878,60.1057243 C42.158092,60.1019157 42.1530282,60.0968374 42.1473314,60.0917591 C41.0307569,59.2652722 39.6647888,58.7491939 38.1867835,58.7491939 C34.4294218,58.7491939 31.3828952,61.8983504 31.3828952,65.7813157 C31.3828952,69.6642809 34.4294218,72.8121678 38.1867835,72.8121678 C39.6736505,72.8121678 41.0478473,72.3214809 42.1656878,71.486107 L42.1656878,72.6236374 L45.6597303,72.6236374 L45.6597303,53.4119417 L42.1656878,53.4119417 L42.1656878,60.1057243 Z" id="Fill-2"></path>
                    <path d="M55.2638532,69.4897157 C53.2370553,69.4897157 51.5913106,67.8392809 51.5913106,65.8048026 C51.5913106,63.7715939 53.2370553,62.1217939 55.2638532,62.1217939 C57.293816,62.1217939 58.9389277,63.7715939 58.9389277,65.8048026 C58.9389277,67.8392809 57.293816,69.4897157 55.2638532,69.4897157 L55.2638532,69.4897157 Z M58.7838479,60.1057243 C58.778784,60.1019157 58.7724543,60.0968374 58.7654915,60.0917591 C57.6514489,59.2652722 56.2829489,58.7491939 54.8049436,58.7491939 C51.0475819,58.7491939 48.0010553,61.8983504 48.0010553,65.7813157 C48.0010553,69.6642809 51.0475819,72.8121678 54.8049436,72.8121678 C56.2918106,72.8121678 57.6647415,72.3214809 58.7838479,71.486107 L58.7838479,72.6236374 L62.2785234,72.6236374 L62.2785234,58.9872374 L58.7838479,58.9872374 L58.7838479,60.1057243 Z" id="Fill-4"></path>
                    <path d="M69.7012117,58.1578304 C69.7012117,57.2938913 69.7012117,56.1963522 71.0735096,56.1963522 C71.4260787,56.1963522 71.7647223,56.2560217 71.7647223,56.2560217 L71.7647223,53.0846478 C71.7647223,53.0846478 71.1912436,53.069413 70.8000628,53.0846478 C67.5870628,53.2097 66.1729883,54.3097783 66.1729883,57.5306652 L66.1729883,58.9874913 L64.6088979,58.9874913 L64.6088979,62.1290304 L66.1729883,62.1290304 L66.1729883,72.6029435 L69.7088074,72.6029435 L69.7088074,62.1290304 L71.8014351,62.1290304 L71.8014351,58.9874913 L69.7088074,58.9874913 C69.7088074,58.9874913 69.7012117,58.5494913 69.7012117,58.1578304" id="Fill-6"></path>
                    <path d="M96.9489835,58.702093 C95.3937548,58.702093 93.9448665,59.2676843 92.9523559,60.1735191 L92.9523559,58.9858409 L89.4424888,58.9858409 L89.4424888,72.6051017 L93.0548984,72.6051017 L93.0548984,65.9424235 L93.0548984,65.0397626 C92.9460261,62.5939452 94.882941,62.0334322 95.8982388,62.0334322 C96.9983559,62.0334322 98.3902761,62.6434583 98.3902761,64.6468322 L98.3902761,65.3139887 L98.3902761,72.6051017 L101.996989,72.6051017 L101.996989,64.9769191 L101.995723,63.4496322 C101.986861,60.7479974 100.152489,58.702093 96.9489835,58.702093" id="Fill-8"></path>
                    <path d="M108.186824,64.2180365 C108.550154,62.738993 109.81991,61.7918974 111.442234,61.7918974 C113.013287,61.7918974 114.305197,62.6818626 114.611559,64.228193 L108.186824,64.2180365 Z M118.42209,65.7662713 C118.42209,62.1524539 115.571154,58.7258974 111.563133,58.7258974 C107.556378,58.7258974 104.368064,61.8782278 104.368064,65.7662713 C104.368064,69.6543148 107.342431,72.8060104 111.563133,72.8060104 C115.070468,72.8060104 117.450468,70.4058974 118.054963,68.2831843 L114.279245,68.2831843 C113.736782,69.2766191 112.821495,69.823167 111.442234,69.823167 C109.692681,69.823167 108.264681,68.5745496 108.093144,66.8625409 L118.337904,66.8574626 C118.337904,66.8574626 118.42209,66.5191235 118.42209,65.7662713 L118.42209,65.7662713 Z" id="Fill-10"></path>
                    <path d="M24.7726984,59.1794496 C23.4820548,59.4619278 22.5085335,60.6153278 22.5085335,61.9940757 C22.5085335,62.0232757 22.5161293,62.0594583 22.5167622,62.089293 C24.5581186,62.5247539 25.587975,63.9054061 25.587975,65.724693 C25.587975,67.7699626 23.9200761,69.4286496 21.8812516,69.4286496 C19.8417941,69.4286496 17.9358952,67.7229887 17.9358952,65.1940148 C17.9358952,62.103893 20.5766824,59.2054757 24.339108,59.1147017 C24.4068367,59.1134322 24.5138101,59.1159713 24.6233154,59.1210496 C23.7972782,58.8049278 22.8959165,58.6316322 21.9540441,58.6316322 C17.9169059,58.6316322 14.6444059,61.8080843 14.6444059,65.724693 C14.6444059,69.6419365 17.9169059,72.8171191 21.9540441,72.8171191 C25.9918154,72.8171191 29.2643154,69.6419365 29.2643154,65.724693 C29.2643154,62.7773974 27.4109537,60.2503278 24.7726984,59.1794496" id="Fill-12"></path>
                    <path d="M79.8993218,58.6909209 C75.8615505,58.6909209 72.5877846,61.8661035 72.5877846,65.7839817 C72.5877846,68.7306426 74.4424122,71.2589817 77.0819335,72.3285904 C78.3725771,72.0448426 79.3441995,70.8946165 79.3441995,69.5145991 C79.3441995,69.4847643 79.3366037,69.4498513 79.3353378,69.4200165 C77.2946144,68.9851904 76.264758,67.6039035 76.264758,65.7839817 C76.264758,63.7380774 77.9326569,62.08066 79.9721144,62.08066 C82.0122048,62.08066 83.9174707,63.7850513 83.9174707,66.3159296 C83.9174707,69.4054165 81.2766835,72.3012948 77.512992,72.3946078 C77.4465293,72.3958774 77.3389229,72.3920687 77.2300505,72.3869904 C78.0560878,72.7031122 78.9561835,72.8770426 79.8993218,72.8770426 C83.9358271,72.8770426 87.2083271,69.7005904 87.2083271,65.7839817 C87.2083271,61.8661035 83.9358271,58.6909209 79.8993218,58.6909209" id="Fill-14"></path>
                    <path d="M59.0766005,46.1130843 C71.9191059,46.1130843 82.3335048,35.9324409 82.3335048,23.3739017 C82.3335048,13.9232583 76.435409,5.81835391 68.0421112,2.3879887 C63.9328133,3.29509304 60.8369144,6.99016261 60.8369144,11.4133278 C60.8369144,11.50918 60.8590686,11.6209017 60.8628665,11.7161191 C67.3610261,13.1126409 70.6385899,17.5358061 70.6385899,23.3739017 C70.6385899,29.9299365 65.3310633,35.2475104 58.8417654,35.2475104 C52.3531005,35.2475104 46.2910633,29.7769539 46.2910633,21.6663365 C46.2910633,11.763093 54.690691,2.47431913 66.6609516,2.18041478 C66.8774303,2.17533652 67.2186059,2.1835887 67.5686431,2.19945826 C64.9379835,1.18951913 62.0718559,0.63471913 59.0766005,0.63471913 C46.2302973,0.63471913 35.8152654,10.8153626 35.8152654,23.3739017 C35.8152654,35.9324409 46.2302973,46.1130843 59.0766005,46.1130843" id="Fill-17"></path>
                    <polygon id="Fill-1" points="10.5202963 58.9713043 7.31742394 68.2956261 4.04112606 58.9713043 0.000189893621 58.9713043 4.995025 72.6058 9.43220585 72.6058 14.456791 58.9713043"></polygon>
                </g>
            </g>
        </g>
    </g>
</svg>