<?xml version="1.0" encoding="UTF-8"?>
<svg width="158px" height="30px" viewBox="0 0 158 30" version="1.1" xmlns="http://www.w3.org/2000/svg" xmlns:xlink="http://www.w3.org/1999/xlink">
    <!-- Generator: Sketch 43.2 (39069) - http://www.bohemiancoding.com/sketch -->
    <title>wu_logo@3x</title>
    <desc>Created with Sketch.</desc>
    <defs></defs>
    <g id="Pages" stroke="none" stroke-width="1" fill="none" fill-rule="evenodd" opacity="0.2">
        <g id="landing" transform="translate(-641.000000, -6243.000000)" fill="#000000">
            <g id="lithuania" transform="translate(198.000000, 5142.000000)">
                <g id="other_offices" transform="translate(0.000000, 775.000000)">
                    <g id="wu_logo" transform="translate(443.000000, 326.000000)">
                        <path d="M157.33257,27.7098077 C157.33257,28.9746324 156.302672,30 155.032259,30 L2.30014866,30 C1.02973564,30 0,28.9746324 0,27.7098077 L0,2.29019228 C0,1.02536759 1.02973564,0 2.30014866,0 L155.032259,0 C156.302672,0 157.33257,1.02536759 157.33257,2.29019228 L157.33257,27.7098077 Z M11.662095,13.5868569 L12.5648874,7.10281743 L13.4817213,13.5868569 L17.8959049,13.5868569 L20.0355145,3.5690834 L16.5880537,3.5690834 L15.6355376,9.90389255 L14.6901249,3.5690834 L10.482105,3.5690834 L9.53669229,9.74133234 L8.60548638,3.5690834 L5.00885428,3.5690834 L7.18398081,13.5868569 L11.662095,13.5868569 Z M22.1821802,13.5868569 L30.0532879,13.5868569 L30.0532879,10.9856715 L26.0861571,10.9856715 L26.0861571,9.80412714 L29.6467546,9.80412714 L29.6467546,7.22992065 L26.0861571,7.22992065 L26.0861571,6.14312737 L29.9202016,6.14312737 L29.9202016,3.5690834 L22.1821802,3.5690834 L22.1821802,13.5868569 Z M55.8132769,13.5868569 L63.6843846,13.5868569 L63.6843846,10.9856715 L59.7172537,10.9856715 L59.7172537,9.80412714 L63.2778512,9.80412714 L63.2778512,7.22992065 L59.7172537,7.22992065 L59.7172537,6.14312737 L63.5512982,6.14312737 L63.5512982,3.5690834 L55.8132769,3.5690834 L55.8132769,13.5868569 Z M32.2138155,10.7904713 C32.2091949,10.8328177 32.2056896,10.8811191 32.203459,10.9352101 C32.2009097,10.9891356 32.1999537,11.0655576 32.1999537,11.1643108 C32.1999537,12.1703691 32.5954131,12.9448454 33.3860132,13.4879052 C34.176932,14.0309649 35.3099343,14.3024121 36.7851795,14.3024121 C38.2417829,14.3024121 39.3921523,13.9770394 40.2362876,13.3256324 C41.0801043,12.6747216 41.5021719,11.7920634 41.5021719,10.6776578 C41.5021719,9.85024847 41.2582362,9.20248058 40.7703649,8.73468497 C40.2823342,8.26688936 39.3470616,7.84507932 37.9643877,7.46892401 C37.7840251,7.41714889 37.5435947,7.3561105 37.2429372,7.28580883 C36.4150537,7.08350542 36.0012712,6.79187754 36.0012712,6.41109059 C36.0012712,6.20432096 36.0752008,6.03741652 36.2232192,5.91037726 C36.3712377,5.783338 36.5676927,5.7201492 36.812903,5.7201492 C37.0949188,5.7201492 37.3089003,5.79524793 37.4545287,5.9456108 C37.6001572,6.09613909 37.6869926,6.32887898 37.7147162,6.64383048 L41.1067125,6.64383048 L41.1067125,6.42515092 C41.1067125,5.50378546 40.7517232,4.79746041 40.0419039,4.30601035 C39.3320845,3.81489113 38.3044,3.5690834 36.9585315,3.5690834 C35.4832864,3.5690834 34.3375376,3.8545909 33.5214445,4.42577132 C32.7050328,4.99728258 32.2969862,5.79987957 32.2969862,6.83422396 C32.2969862,7.5299624 32.4936006,8.10362406 32.88667,8.55504351 C33.2795801,9.00629755 33.9063881,9.37070835 34.7664565,9.64811048 C35.1225611,9.76075857 35.6059712,9.89722653 36.216368,10.0570181 C36.8267648,10.2169751 37.2313061,10.3461647 37.4303104,10.4449179 C37.550446,10.5061217 37.6417426,10.597762 37.7042003,10.7200042 C37.766658,10.8422464 37.7978869,10.9904589 37.7978869,11.1643108 C37.7978869,11.3995319 37.7158315,11.5839705 37.5515613,11.7177918 C37.3874504,11.8517785 37.1597665,11.9187718 36.8683502,11.9187718 C36.5355079,11.9187718 36.2891822,11.8330865 36.129692,11.6615504 C35.9700424,11.4900143 35.8903769,11.2278304 35.8903769,10.8751642 L35.8903769,10.7904713 L32.2138155,10.7904713 Z M52.9510559,3.5690834 L44.3643929,3.5690834 L44.3643929,6.24498825 L46.7553812,6.24498825 L46.7553812,13.5868569 L50.5664992,13.5868569 L50.5664992,6.24498825 L52.9510559,6.24498825 L52.9510559,3.5690834 Z M65.8310503,13.5868569 L69.5161977,13.5868569 L69.5161977,9.9602416 C69.5602863,9.95093338 69.6068764,9.94554441 69.6554989,9.94309487 C69.7042777,9.94080864 69.772912,9.93982883 69.8614018,9.93982883 C70.2288065,9.93982883 70.4898984,10.028012 70.6448337,10.2045417 C70.7997691,10.3812347 70.9237486,10.7999415 71.0167724,11.4609888 L71.1096398,12.194379 C71.1316841,12.371072 71.1637343,12.5636053 71.2059467,12.7716523 C71.2478465,12.9800259 71.3110088,13.2517608 71.3951211,13.5868569 L75.1332686,13.5868569 C75.0313333,13.1204658 74.9561326,12.7548322 74.9075101,12.489956 C74.8587313,12.2250798 74.8255867,12.002009 74.8080763,11.8209069 L74.6751852,10.734294 C74.57325,9.92839768 74.3951759,9.37153717 74.1406505,9.06354922 C73.886125,8.75572458 73.4602482,8.55208673 72.8625511,8.45230909 C73.5043368,8.28018857 73.9868095,7.99832897 74.3099693,7.6067303 C74.6331291,7.21529492 74.7946309,6.71836633 74.7946309,6.11594451 C74.7946309,5.19230727 74.5025832,4.53713884 73.9183315,4.14994932 C73.3339235,3.7625965 72.3070665,3.5690834 70.8374476,3.5690834 L65.8310503,3.5690834 L65.8310503,13.5868569 Z M81.877637,7.42683106 L84.0434985,13.5868569 L88.7288183,13.5868569 L88.7288183,3.5690834 L85.561904,3.5690834 L85.561904,9.56613344 L83.3966867,3.5690834 L78.7110448,3.5690834 L78.7110448,13.5868569 L81.877637,13.5868569 L81.877637,7.42683106 Z M81.877637,19.5910708 L84.0434985,25.7512961 L88.7288183,25.7512961 L88.7288183,15.7335226 L85.561904,15.7335226 L85.561904,21.7305814 L83.3966867,15.7335226 L78.7110448,15.7335226 L78.7110448,25.7512961 L81.877637,25.7512961 L81.877637,19.5910708 Z M48.2465403,19.5911111 L50.4124018,25.7512961 L55.0977216,25.7512961 L55.0977216,15.7335226 L51.9308074,15.7335226 L51.9308074,21.7306057 L49.765429,15.7335226 L45.0799482,15.7335226 L45.0799482,25.7512961 L48.2465403,25.7512961 L48.2465403,19.5911111 Z M32.1999537,15.7335226 L32.1999537,21.6787216 C32.1999537,22.4588895 32.2678253,23.0508611 32.4037273,23.4541615 C32.5394704,23.8577785 32.7634307,24.2245159 33.075926,24.5543739 C33.4696446,24.9690705 33.9665216,25.272179 34.5662391,25.4638575 C35.1659567,25.655536 35.9252598,25.7512961 36.8441485,25.7512961 C38.4376201,25.7512961 39.612259,25.4204884 40.3682242,24.7583983 C41.1241893,24.0961499 41.5021719,23.0696965 41.5021719,21.6787216 L41.5021719,15.7335226 L37.7337904,15.7335226 L37.7337904,21.8325709 C37.7337904,22.2338137 37.6557461,22.5480018 37.4994984,22.7754518 C37.3432508,23.0029019 37.1248538,23.1165477 36.8441485,23.1165477 C36.554542,23.1165477 36.3339197,23.0073337 36.1822816,22.7887474 C36.0306435,22.5704777 35.9548244,22.2516994 35.9548244,21.8325709 L35.9548244,15.7335226 L32.1999537,15.7335226 Z M58.6754979,25.7512961 L62.9688293,25.7512961 L62.9688293,15.7335226 L58.6754979,15.7335226 L58.6754979,25.7512961 Z M70.0206231,26.4668513 C71.6845269,26.4668513 72.9526888,26.0084785 73.8249521,25.0917329 C74.6970585,24.1749874 75.1332686,22.8468138 75.1332686,21.1072122 C75.1332686,19.3912482 74.7005093,18.0665459 73.8349907,17.1334358 C72.9694722,16.2001603 71.7381708,15.7335226 70.1410867,15.7335226 C68.535062,15.7335226 67.295918,16.2014827 66.4238116,17.1367417 C65.5515483,18.0724966 65.1154951,19.4006702 65.1154951,21.1214278 C65.1154951,22.8185477 65.5427645,24.133828 66.3969896,25.0669382 C67.2512147,26.0003789 68.4591448,26.4668513 70.0206231,26.4668513 Z M114.035894,25.7512961 L116.013326,11.3938446 L118.022002,25.7512961 L127.69094,25.7512961 L132.377688,3.5690834 L124.642797,3.5690834 L122.556092,17.596364 L120.485414,3.5690834 L111.451391,3.5690834 L109.380065,17.2358122 L107.340793,3.5690834 L99.462147,3.5690834 L104.226601,25.7512961 L114.035894,25.7512961 Z M138.852887,3.5690834 L138.852887,17.5290789 C138.852887,18.4443159 138.675858,19.1609897 138.321637,19.6797481 C137.966931,20.1983446 137.471443,20.4574809 136.834525,20.4574809 C136.177218,20.4574809 135.676552,20.2085481 135.332364,19.7100347 C134.988176,19.2121691 134.816001,18.4849679 134.816001,17.5290789 L134.816001,3.5690834 L133.145548,3.5690834 L128.799912,24.227266 C129.600105,24.9240187 130.553701,25.4539524 131.665556,25.8110746 C133.02645,26.2482051 134.749008,26.4668513 136.834525,26.4668513 C140.449874,26.4668513 143.115511,25.7121169 144.830625,24.2020002 C146.546225,22.6920455 147.404349,20.3505872 147.404349,17.1782732 L147.404349,3.5690834 L138.852887,3.5690834 Z M98.0310365,25.7512961 L93.5738055,3.5690834 L92.3065945,3.5690834 L96.7638255,25.7512961 L98.0310365,25.7512961 Z M101.608813,25.7512961 L97.1515817,3.5690834 L95.8843707,3.5690834 L100.341602,25.7512961 L101.608813,25.7512961 Z M69.5227641,7.70520152 L69.5227641,5.81024279 C69.5802981,5.80583363 69.6378322,5.80273089 69.6953662,5.80011806 C69.7529002,5.79783182 69.8348236,5.79668871 69.9409801,5.79668871 C70.3570073,5.79668871 70.6601553,5.86805177 70.8507367,6.01077789 C71.0408491,6.15334071 71.136218,6.37869775 71.136218,6.6865224 C71.136218,7.01704605 71.0200556,7.27179748 70.7877307,7.45061339 C70.5552495,7.6294293 70.2220838,7.71891891 69.7883899,7.71891891 C69.7175668,7.71891891 69.6631596,7.71761249 69.6256374,7.71532626 C69.5879589,7.71320333 69.5537199,7.70977398 69.5227641,7.70520152 Z M70.1277542,18.4345004 C70.5202021,18.4345004 70.7968919,18.6156676 70.9575101,18.977506 C71.1181283,19.3396751 71.1984373,20.000208 71.1984373,20.95927 C71.1984373,22.0218089 71.1170303,22.7575526 70.9542162,23.1665011 C70.7912452,23.5756149 70.5114183,23.7800892 70.1144216,23.7800892 C69.7262088,23.7800892 69.4507737,23.5860287 69.2879596,23.1982384 C69.1249887,22.8104481 69.0437385,22.1275999 69.0437385,21.1495286 C69.0437385,20.1058337 69.1249887,19.3925706 69.2879596,19.0094087 C69.4507737,18.6260814 69.7306007,18.4345004 70.1277542,18.4345004 Z" id="Combined-Shape"></path>
                    </g>
                </g>
            </g>
        </g>
    </g>
</svg>