<?xml version="1.0" encoding="UTF-8"?>
<svg width="110px" height="21px" viewBox="0 0 110 21" version="1.1" xmlns="http://www.w3.org/2000/svg" xmlns:xlink="http://www.w3.org/1999/xlink">
    <!-- Generator: Sketch 43.2 (39069) - http://www.bohemiancoding.com/sketch -->
    <title>wu_logo_m</title>
    <desc>Created with Sketch.</desc>
    <defs></defs>
    <g id="Pages" stroke="none" stroke-width="1" fill="none" fill-rule="evenodd" opacity="0.2">
        <g id="landing-mobile" transform="translate(-30.000000, -6526.000000)" fill="#000000">
            <g id="lithuania" transform="translate(-37.000000, 4496.000000)">
                <g id="other_offices" transform="translate(67.000000, 1718.000000)">
                    <g id="wu_logo_m" transform="translate(0.000000, 312.000000)">
                        <path d="M109.784277,19.3968654 C109.784277,20.2822427 109.06563,21 108.179155,21 L1.60500879,21 C0.718533888,21 0,20.2822427 0,19.3968654 L0,1.60313459 C0,0.717757311 0.718533888,0 1.60500879,0 L108.179155,0 C109.06563,0 109.784277,0.717757311 109.784277,1.60313459 L109.784277,19.3968654 Z M8.13763277,9.51079981 L8.76758754,4.9719722 L9.40734033,9.51079981 L12.4874906,9.51079981 L13.9804777,2.49835838 L11.5748919,2.49835838 L10.9102407,6.93272479 L10.250546,2.49835838 L7.31425365,2.49835838 L6.65455902,6.81893263 L6.00477768,2.49835838 L3.49510243,2.49835838 L5.01287269,9.51079981 L8.13763277,9.51079981 Z M15.4783884,9.51079981 L20.9707278,9.51079981 L20.9707278,7.68997005 L18.2025242,7.68997005 L18.2025242,6.862889 L20.687055,6.862889 L20.687055,5.06094445 L18.2025242,5.06094445 L18.2025242,4.30018916 L20.8778622,4.30018916 L20.8778622,2.49835838 L15.4783884,2.49835838 L15.4783884,9.51079981 Z M38.9456568,9.51079981 L44.4379962,9.51079981 L44.4379962,7.68997005 L41.6697925,7.68997005 L41.6697925,6.862889 L44.1543234,6.862889 L44.1543234,5.06094445 L41.6697925,5.06094445 L41.6697925,4.30018916 L44.3451306,4.30018916 L44.3451306,2.49835838 L38.9456568,2.49835838 L38.9456568,9.51079981 Z M22.4783111,7.55332993 C22.4750869,7.58297242 22.472641,7.61678339 22.4710845,7.65464705 C22.4693056,7.69239491 22.4686386,7.74589035 22.4686386,7.81501757 C22.4686386,8.51925838 22.7445841,9.06139181 23.2962529,9.44153363 C23.848144,9.82167546 24.6387358,10.0116885 25.6681395,10.0116885 C26.6845352,10.0116885 27.4872455,9.7839276 28.0762703,9.32794267 C28.6650727,8.87230512 28.9595851,8.25444438 28.9595851,7.47436047 C28.9595851,6.89517393 28.7893705,6.4417364 28.4489413,6.11427948 C28.108401,5.78682255 27.4557819,5.49155552 26.4909731,5.22824681 C26.3651188,5.19200423 26.1973501,5.14927735 25.9875559,5.10006618 C25.4098713,4.9584538 25.1211402,4.75431428 25.1211402,4.48776341 C25.1211402,4.34302467 25.1727271,4.22619156 25.2760122,4.13726408 C25.3792972,4.0483366 25.5163805,4.00410444 25.6874846,4.00410444 C25.8842709,4.00410444 26.0335839,4.05667355 26.1352012,4.16192756 C26.2368186,4.26729736 26.297411,4.43021529 26.3167561,4.65068134 L28.6836396,4.65068134 L28.6836396,4.49760565 C28.6836396,3.85264982 28.4359334,3.35822228 27.9406323,3.01420725 C27.4453311,2.67042379 26.7282285,2.49835838 25.7891019,2.49835838 C24.7596982,2.49835838 23.9602121,2.69821363 23.3907548,3.09803993 C22.8210751,3.4980978 22.5363464,4.0599157 22.5363464,4.78395677 C22.5363464,5.27097368 22.6735409,5.67253684 22.9478188,5.98853046 C23.2219855,6.30440829 23.6593625,6.55949584 24.2595052,6.75367734 C24.5079896,6.832531 24.8453058,6.92805857 25.2712315,7.03991267 C25.6971571,7.15188256 25.9794399,7.24231532 26.1183021,7.31144254 C26.2021308,7.35428521 26.2658362,7.41843342 26.3094183,7.50400296 C26.3530003,7.58957251 26.3747913,7.69332124 26.3747913,7.81501757 C26.3747913,7.97967236 26.3175343,8.10877932 26.2029091,8.20245423 C26.088395,8.29624493 25.9295206,8.34314028 25.7261748,8.34314028 C25.4939224,8.34314028 25.3220401,8.28316055 25.2107503,8.16308529 C25.0993492,8.04301003 25.0437598,7.85948131 25.0437598,7.61261492 L25.0437598,7.55332993 L22.4783111,7.55332993 Z M36.9484425,2.49835838 L30.9567995,2.49835838 L30.9567995,4.37149177 L32.6251948,4.37149177 L32.6251948,9.51079981 L35.284535,9.51079981 L35.284535,4.37149177 L36.9484425,4.37149177 L36.9484425,2.49835838 Z M45.935907,9.51079981 L48.5073468,9.51079981 L48.5073468,6.97216912 C48.5381112,6.96565337 48.570621,6.96188108 48.604549,6.96016641 C48.6385862,6.95856605 48.6864782,6.95788018 48.748225,6.95788018 C49.0045944,6.95788018 49.1867804,7.01960841 49.2948919,7.14317919 C49.4030034,7.26686427 49.4895145,7.55995906 49.554425,8.02269218 L49.6192265,8.5360653 C49.6346087,8.65975039 49.6569728,8.7945237 49.686428,8.9401566 C49.715665,9.08601812 49.7597388,9.27623253 49.818431,9.51079981 L52.4268535,9.51079981 C52.3557247,9.18432605 52.3032507,8.92838251 52.2693227,8.74296919 C52.2352856,8.55755587 52.2121578,8.40140631 52.1999393,8.27463481 L52.10721,7.51400582 C52.0360811,6.94987837 51.9118237,6.56007602 51.7342197,6.34448446 C51.5566157,6.1290072 51.2594454,5.98646071 50.8423814,5.91661636 C51.2902097,5.796132 51.6268718,5.59883028 51.8523678,5.32471121 C52.0778638,5.05070645 52.1905573,4.70285643 52.1905573,4.28116116 C52.1905573,3.63461509 51.9867709,3.17599719 51.5790889,2.90496453 C51.1712979,2.63381755 50.4547726,2.49835838 49.4292949,2.49835838 L45.935907,2.49835838 L45.935907,9.51079981 Z M57.1329714,5.19878174 L58.6442766,9.51079981 L61.9136216,9.51079981 L61.9136216,2.49835838 L59.703797,2.49835838 L59.703797,6.69629341 L58.1929412,2.49835838 L54.9233714,2.49835838 L54.9233714,9.51079981 L57.1329714,9.51079981 L57.1329714,5.19878174 Z M57.1329714,13.7137496 L58.6442766,18.0259073 L61.9136216,18.0259073 L61.9136216,11.0134658 L59.703797,11.0134658 L59.703797,15.211407 L58.1929412,11.0134658 L54.9233714,11.0134658 L54.9233714,18.0259073 L57.1329714,18.0259073 L57.1329714,13.7137496 Z M33.665703,13.7137777 L35.1770082,18.0259073 L38.4463532,18.0259073 L38.4463532,11.0134658 L36.2365286,11.0134658 L36.2365286,15.211424 L34.7255604,11.0134658 L31.4561031,11.0134658 L31.4561031,18.0259073 L33.665703,18.0259073 L33.665703,13.7137777 Z M22.4686386,11.0134658 L22.4686386,15.1751051 C22.4686386,15.7212226 22.5159983,16.1356027 22.6108287,16.417913 C22.7055482,16.7004449 22.8618243,16.9571611 23.0798787,17.1880617 C23.3546096,17.4783494 23.7013228,17.6905253 24.1197966,17.8247002 C24.5382704,17.9588752 25.0681006,18.0259073 25.7092872,18.0259073 C26.8211874,18.0259073 27.6408326,17.7943419 28.1683336,17.3308788 C28.6958346,16.8673049 28.9595851,16.1487876 28.9595851,15.1751051 L28.9595851,11.0134658 L26.3300658,11.0134658 L26.3300658,15.2827996 C26.3300658,15.5636696 26.2756076,15.7836012 26.1665804,15.9428163 C26.0575532,16.1020313 25.9051591,16.1815834 25.7092872,16.1815834 C25.5072041,16.1815834 25.3532572,16.1051336 25.2474465,15.9521232 C25.1416357,15.7993344 25.0887303,15.5761896 25.0887303,15.2827996 L25.0887303,11.0134658 L22.4686386,11.0134658 Z M40.9428711,18.0259073 L43.9386926,18.0259073 L43.9386926,11.0134658 L40.9428711,11.0134658 L40.9428711,18.0259073 Z M48.8593272,18.5267959 C50.020374,18.5267959 50.9052781,18.205935 51.5139302,17.5642131 C52.1224728,16.9224912 52.4268535,15.9927696 52.4268535,14.7750485 C52.4268535,13.5738738 52.1248807,12.6465821 51.520935,11.993405 C50.9169893,11.3401122 50.0578059,11.0134658 48.9433849,11.0134658 C47.8227252,11.0134658 46.9580694,11.3410379 46.3495267,11.9957192 C45.7408747,12.6507477 45.4366034,13.5804692 45.4366034,14.7849995 C45.4366034,15.9729834 45.7347455,16.8936796 46.3308108,17.5468567 C46.9268761,18.2002652 47.7697514,18.5267959 48.8593272,18.5267959 Z M79.5725144,18.0259073 L80.9523364,7.97569123 L82.3539599,18.0259073 L89.1007982,18.0259073 L92.3711402,2.49835838 L86.9738503,2.49835838 L85.5177794,12.3174548 L84.0728917,2.49835838 L77.7690876,2.49835838 L76.323748,12.0650685 L74.9007748,2.49835838 L69.4031753,2.49835838 L72.7277387,18.0259073 L79.5725144,18.0259073 Z M96.8894356,2.49835838 L96.8894356,12.2703553 C96.8894356,12.9110211 96.7659072,13.4126928 96.5187373,13.7758237 C96.2712287,14.1388412 95.9254845,14.3202366 95.4810531,14.3202366 C95.0223944,14.3202366 94.6730369,14.1459837 94.4328678,13.7970243 C94.1926986,13.4485184 94.0725576,12.9394775 94.0725576,12.2703553 L94.0725576,2.49835838 L92.9069412,2.49835838 L89.8746222,16.9590862 C90.4329844,17.4468131 91.0983896,17.8177667 91.8742251,18.0677522 C92.8238361,18.3737436 94.025811,18.5267959 95.4810531,18.5267959 C98.0037889,18.5267959 99.8638294,17.9984818 101.06061,16.9414001 C102.25773,15.8844318 102.856515,14.245411 102.856515,12.0247912 L102.856515,2.49835838 L96.8894356,2.49835838 Z M68.4045682,18.0259073 L65.2943801,2.49835838 L64.4101395,2.49835838 L67.5203276,18.0259073 L68.4045682,18.0259073 Z M70.9010861,18.0259073 L67.790898,2.49835838 L66.9066574,2.49835838 L70.0168455,18.0259073 L70.9010861,18.0259073 Z M48.5119288,5.39364107 L48.5119288,4.06716995 C48.5520751,4.06408354 48.5922215,4.06191162 48.6323679,4.06008264 C48.6725142,4.05848228 48.7296791,4.0576821 48.8037535,4.0576821 C49.094051,4.0576821 49.3055831,4.10763624 49.4385679,4.20754453 C49.5712254,4.3073385 49.6377724,4.46508843 49.6377724,4.68056568 C49.6377724,4.91193224 49.556716,5.09025824 49.3946032,5.21542937 C49.2323814,5.34060051 48.9999034,5.40324324 48.6972784,5.40324324 C48.6478591,5.40324324 48.6098946,5.40232874 48.5837122,5.40072838 C48.5574207,5.39924233 48.5335293,5.39684179 48.5119288,5.39364107 Z M48.9340816,12.9041503 C49.2079258,12.9041503 49.4009958,13.0309673 49.5130727,13.2842542 C49.6251496,13.5377726 49.6811881,14.0001456 49.6811881,14.671489 C49.6811881,15.4152662 49.6243835,15.9302868 49.5107743,16.2165508 C49.3970556,16.5029305 49.2017966,16.6460624 48.9247784,16.6460624 C48.6538894,16.6460624 48.461695,16.5102201 48.3480857,16.2387669 C48.2343671,15.9673137 48.1776719,15.4893199 48.1776719,14.80467 C48.1776719,14.0740836 48.2343671,13.5747994 48.3480857,13.3065861 C48.461695,13.038257 48.656954,12.9041503 48.9340816,12.9041503 Z" id="Combined-Shape"></path>
                    </g>
                </g>
            </g>
        </g>
    </g>
</svg>