<?xml version="1.0" encoding="UTF-8"?>
<svg width="20px" height="14px" viewBox="0 0 20 14" version="1.1" xmlns="http://www.w3.org/2000/svg" xmlns:xlink="http://www.w3.org/1999/xlink">
    <!-- Generator: Sketch 42 (36781) - http://www.bohemiancoding.com/sketch -->
    <title>yt</title>
    <desc>Created with Sketch.</desc>
    <defs></defs>
    <g id="Pages" stroke="none" stroke-width="1" fill="none" fill-rule="evenodd" opacity="0.5">
        <g id="What-we-do-2" transform="translate(-225.000000, -4642.000000)" fill="#23231E">
            <g id="footer" transform="translate(0.000000, 4274.000000)">
                <g id="info" transform="translate(30.000000, 200.000000)">
                    <g id="soc" transform="translate(1.000000, 163.000000)">
                        <path d="M201.988432,14.5858841 L201.988432,8.97424577 C203.980638,9.91167957 205.523602,10.8172007 207.348463,11.7935281 C205.843351,12.6282431 203.980638,13.5646796 201.988432,14.5858841 M213.090998,6.18288702 C212.747343,5.73012644 212.161634,5.37809012 211.538073,5.26140953 C209.705243,4.9133623 198.270974,4.91236503 196.439141,5.26140953 C195.939097,5.35515291 195.493839,5.58153321 195.111335,5.93356952 C193.49964,7.42947453 194.004664,15.4515145 194.393145,16.7509573 C194.556505,17.3134176 194.767679,17.7193064 195.033639,17.9855775 C195.376298,18.3376139 195.845463,18.5799505 196.384355,18.6886529 C197.893451,19.0007984 205.668037,19.1753207 211.506198,18.7355246 C212.044094,18.6417812 212.520231,18.3914664 212.895762,18.0244711 C214.385932,16.5345497 214.28433,8.06174371 213.090998,6.18288702" id="yt"></path>
                    </g>
                </g>
            </g>
        </g>
    </g>
</svg>